<?xml version="1.0" standalone="no"?>
<!DOCTYPE svg PUBLIC "-//W3C//DTD SVG 1.1//EN" "http://www.w3.org/Graphics/SVG/1.1/DTD/svg11.dtd" >
<!--
2013-9-30: Created.
-->
<svg>
<metadata>
Created by iconfont
</metadata>
<defs>

<font id="iconfont" horiz-adv-x="1024" >
  <font-face
    font-family="iconfont"
    font-weight="500"
    font-stretch="normal"
    units-per-em="1024"
    ascent="896"
    descent="-128"
  />
    <missing-glyph />
    
    <glyph glyph-name="add" unicode="&#58994;" d="M810.666667 341.333333l-256 0 0-256-85.333333 0 0 256-256 0 0 85.333333 256 0 0 256 85.333333 0 0-256 256 0 0-85.333333z"  horiz-adv-x="1024" />

    
    <glyph glyph-name="changeorder" unicode="&#59928;" d="M275.2 338.4l0-512 121.6 0 0 947.2-396.8-435.2zM748.8 261.6l0 512-121.6 0 0-947.2 396.8 435.2z"  horiz-adv-x="1024" />

    
    <glyph glyph-name="ban" unicode="&#59882;" d="M822.857143 385.682286q0 92.013714-49.737143 168.594286l-430.884571-430.299429q78.262857-50.834286 169.691429-50.834286 63.414857 0 120.832 24.868571t99.108571 66.56 66.267429 99.693714 24.576 121.417143zM251.977143 214.820571l431.396571 430.884571q-77.165714 52.004571-171.446857 52.004571-84.553143 0-156.013714-41.691429t-113.152-113.737143-41.691429-156.598857q0-92.598857 50.834286-170.861714zM950.857143 385.682286q0-89.746286-34.889143-171.446857t-93.403429-140.580571-139.995429-93.696-170.569143-34.889143-170.569143 34.889143-139.995429 93.696-93.403429 140.580571-34.889143 171.446857 34.889143 171.154286 93.403429 140.288 139.995429 93.696 170.569143 34.889143 170.569143-34.889143 139.995429-93.696 93.403429-140.288 34.889143-171.154286z"  horiz-adv-x="1024" />

    
    <glyph glyph-name="search" unicode="&#58893;" d="M946.222-32.994 727.729 187.332c-2.543 2.549-5.353 4.496-8.036 6.617 36.908 57.103 58.459 125.121 58.459 198.387 0 201.282-161.79 364.428-361.498 364.428-199.596 0-361.498-163.146-361.498-364.428 0-201.31 161.902-364.42 361.498-364.42 72.648 0 140.196 21.784 196.926 58.999 2.066-2.768 3.961-5.521 6.463-8.05l218.521-220.353c14.919-14.997 34.35-22.472 53.809-22.472 19.472 0 38.916 7.474 53.822 22.436C975.879-111.528 975.879-62.967 946.222-32.994M416.654 142.993c-136.347 0-247.334 111.872-247.334 249.343 0 137.45 110.988 249.351 247.334 249.351s247.334-111.901 247.334-249.351C663.989 254.866 553 142.993 416.654 142.993"  horiz-adv-x="1024" />

    
    <glyph glyph-name="people" unicode="&#58961;" d="M875.466 221.247c-34.694 34.695-75.852 60.581-120.75 76.543 23.679 11.749 45.549 27.397 64.787 46.636 46.478 46.477 72.075 108.272 72.075 174.001s-25.597 127.524-72.075 174.002c-46.478 46.477-108.272 72.074-174.001 72.074-48.096 0-94.072-13.724-133.492-39.289-39.425 25.566-85.409 39.289-133.508 39.289-65.729 0-127.525-25.597-174.002-72.074-46.478-46.477-72.075-108.272-72.075-174.002 0-65.73 25.596-127.524 72.075-174.001 19.239-19.238 41.108-34.887 64.789-46.636-44.9-15.963-86.056-41.848-120.752-76.543C89.998 162.709 56.548 85.784 53.53 3.496l43.099 0c2.995 70.777 31.963 136.894 82.365 187.293 49.325 49.325 113.699 78.118 182.765 82.134 5.55-0.37 11.129-0.571 16.741-0.571s11.193 0.201 16.742 0.571c69.066-4.016 133.441-32.809 182.766-82.134 50.401-50.399 79.369-116.516 82.365-187.293l43.098 0c-3.017 82.288-36.467 159.213-95.005 217.751-14.726 14.726-30.619 27.858-47.465 39.325 21.792 6.812 44.504 10.998 67.758 12.351 5.55-0.37 11.129-0.571 16.741-0.571s11.193 0.201 16.742 0.571c69.066-4.016 133.441-32.809 182.766-82.134 50.401-50.399 79.369-116.516 82.365-187.293l43.098 0C967.454 85.784 934.004 162.709 875.466 221.247zM394.945 316.095c-5.457 0.269-10.939 0.407-16.443 0.407-5.503 0-10.984-0.139-16.443-0.407-104.275 8.398-186.56 95.933-186.56 202.333 0 111.937 91.066 203.004 203.003 203.004 111.937 0 203.004-91.068 203.004-203.004C581.506 412.028 499.22 324.493 394.945 316.095zM487.716 297.79c8.336 4.136 16.442 8.766 24.293 13.854 7.848-5.086 15.946-9.721 24.279-13.854-8.225-2.924-16.317-6.192-24.272-9.776C504.052 291.601 495.947 294.863 487.716 297.79zM661.945 316.095c-5.457 0.269-10.939 0.407-16.443 0.407s-10.984-0.139-16.443-0.407c-31.92 2.57-60.759 6.907-86.219 19.184 3.287 2.955 6.514 5.998 9.663 9.147 46.478 46.477 72.075 108.272 72.075 174.001s-25.597 127.524-72.075 174.002c-1.401 1.401-2.817 2.781-4.246 4.144 28.894 15.84 62.034 24.858 97.245 24.858 111.937 0 203.004-91.068 203.004-203.004C848.506 412.028 766.22 324.493 661.945 316.095zM834.074 63.426"  horiz-adv-x="1024" />

    
    <glyph glyph-name="danmu" unicode="&#58898;" d="M628.011 425.971h88.851v-71.576h-88.851v71.576zM628.011 534.574h88.851v-69.107h-88.851v69.107zM497.184 425.971h86.382v-71.576h-86.382v71.576zM798.061 830.71h-572.122c-81.839 0-148.204-68.834-148.204-153.746l-0-576.486c0-84.93 67.835-163.189 151.559-163.189h565.393c83.724 0 151.577 78.277 151.577 163.189v576.486c0.001 84.911-66.344 153.746-148.202 153.746zM541.61 682.675c11.497-21.402 23.033-49.363 34.567-83.922-14.815-4.938-31.288-11.535-49.383-19.744-6.596 29.62-16.454 56.771-29.611 81.453l44.427 22.213zM400.927 309.959l-9.876-116.010c-3.318-32.91-17.718-52.644-43.201-59.26-25.52-6.541-51.456-11.478-77.75-14.796-3.318 21.412-9.065 41.966-17.284 61.709 37.847-1.658 62.52-1.234 74.056 1.235 11.478 2.469 18.076 13.571 19.734 33.323l9.876 123.419-118.48-0c6.559 52.652 9.876 109.414 9.876 170.322h111.092v91.32c-54.32 0-97.125-0.848-128.357-2.469v44.435c26.294-1.668 51.833-2.469 76.505-2.469h98.747c-1.659-26.35-2.489-52.69-2.489-78.984 0-26.341 0.83-56.78 2.489-91.339l-113.542 0-4.938-88.861h120.93c-3.318-23.050-5.767-46.884-7.388-71.575zM798.325 208.754c-32.946 1.612-60.899 2.469-83.932 2.469h-86.382c0-37.877 0.791-74.045 2.469-108.614h-49.363c1.621 37.884 2.451 74.055 2.451 108.614h-96.258c-26.331-1.669-49.363-3.318-69.116-4.948v46.903c19.753-1.649 42.785-3.307 69.116-4.928h96.258v66.648l-135.747-0c1.621 41.108 2.469 85.543 2.469 133.286 0 47.715-0.848 88.861-2.469 123.418h180.19c14.815 34.558 27.952 69.918 39.506 106.146 18.057-8.256 36.999-15.664 56.753-22.223-16.474-18.123-32.081-46.084-46.895-83.922h86.382c-1.659-31.277-2.469-73.234-2.469-125.878 0-52.681 0.81-96.268 2.469-130.827l-135.746 0v-66.648h83.913c21.374 0 50.174 0.81 86.401 2.469l0-41.965zM497.184 534.574h86.382v-69.107h-86.382v69.107z"  horiz-adv-x="1024" />

    
    <glyph glyph-name="good" unicode="&#58945;" d="M938.784176 305.165514l0.095167-0.026606L834.504158 11.491984l-0.345877 0.076748c-15.999392-36.433794-52.287877-61.941747-94.629217-61.941747L449.945689-50.373015c-22.846334 0-41.3692 18.520819-41.3692 41.3692s18.522865 41.3692 41.3692 41.3692l188.246385 0c-0.010233 0.040932-0.00614 0.089028-0.014326 0.12996l100.786451-0.016373c0.198521-0.00614 0.364297-0.113587 0.564865-0.113587 8.927323 0 16.367783 5.723352 19.263739 13.649881l0.316202 0.225127 99.680257 280.532231-0.157589 0.231267c3.119037 8.083096 5.003967 16.785292 5.003967 25.969465 0 39.7227-32.015158 71.903633-71.638597 72.319096l-0.629333 0.927115 0-0.850367L676.292833 425.3692c-49.28652 0-71.727625 37.250392-56.216349 70.862931 15.513322 33.612539 16.030092 172.659385 16.030092 177.348174l0 20.686135c0 22.846334-18.522865 41.3692-41.3692 41.3692-22.848381 0-41.3692-18.522865-41.3692-41.3692l0-20.686135c0-134.398989-98.714256-245.445108-227.53111-265.389346l0-417.194774c0-22.848381-18.520819-41.3692-41.367153-41.3692L118.997208-50.373015c-22.848381 0-41.3692 18.520819-41.3692 41.3692L77.628008 446.051241c0 22.850427 18.520819 41.3692 41.3692 41.3692l165.475775 0c102.811574 0 186.159864 83.34829 186.159864 186.159864l0 20.686135c0 68.542072 55.564503 124.106576 124.106576 124.106576s124.106576-55.564503 124.106576-124.106576l0-20.686135c0-21.394263-4.703115-145.521305-9.423627-165.473729l81.817424 0c85.679381 0 155.13322-69.453838 155.13322-155.13322C946.371992 336.279139 943.664324 320.234721 938.784176 305.165514zM243.103784 404.684088l-82.737376 0 0-372.319727 82.737376 0L243.103784 404.684088z"  horiz-adv-x="1024" />

    
    <glyph glyph-name="pindao" unicode="&#58970;" d="M926.811494 148.153504c-0.082888-24.064069-19.602454-43.547819-43.684942-43.547819s-43.600007 19.482727-43.682895 43.547819l-0.01535 0 0 65.695235c0 24.13263-19.563568 43.696198-43.698245 43.696198L686.484963 257.544937c-24.13263 0-43.698245-19.563568-43.698245-43.696198l0-109.2451c0-24.136723 19.565615-43.698245 43.698245-43.698245l65.531506 0c0.004093 0 0.00921 0 0.01535 0 0.004093 0 0.008186 0 0.01535 0l0.13303 0 0-0.01535c24.064069-0.082888 43.549865-19.59836 43.549865-43.680848 0-24.084535-19.484773-43.602054-43.549865-43.684942l0-0.01535L642.786719-26.491095c-48.266283 0-87.396489 39.127136-87.396489 87.396489L555.390229 257.544937c0 48.2714 39.129182 87.398536 87.396489 87.398536l196.641589 0c48.269353 0 87.398536-39.127136 87.398536-87.398536l0-109.391433L926.811494 148.153504zM839.428308 432.336892 642.786719 432.336892c-48.266283 0-87.396489 39.131229-87.396489 87.396489L555.390229 716.37497c0 48.269353 39.129182 87.396489 87.396489 87.396489l196.641589 0c48.269353 0 87.398536-39.127136 87.398536-87.396489l0-196.641589C926.826843 471.469144 887.697661 432.336892 839.428308 432.336892zM839.428308 672.678772c0 24.13263-19.563568 43.696198-43.698245 43.696198L686.484963 716.37497c-24.13263 0-43.698245-19.563568-43.698245-43.696198l0-108.563578c0-24.134677 19.565615-44.381813 43.698245-44.381813l109.2451 0c24.134677 0 43.698245 19.565615 43.698245 43.700291L839.428308 672.678772zM358.749664-26.490072l-152.943344 0c-60.332087 0-109.2451 48.910966-109.2451 109.2451L96.561219 235.698373c0 60.33618 48.913013 109.2451 109.2451 109.2451l152.943344 0c60.334133 0 109.247146-48.90892 109.247146-109.2451l0-152.943344C467.99681 22.420895 419.083797-26.490072 358.749664-26.490072zM380.600321 213.848739c0 24.13263-19.565615 43.696198-43.700291 43.696198L227.65493 257.544937c-24.13263 0-43.698245-19.563568-43.698245-43.696198l0-109.2451c0-24.136723 19.565615-43.698245 43.698245-43.698245l109.2451 0c24.134677 0 43.700291 19.561521 43.700291 43.698245L380.600321 213.848739zM380.600321 432.336892 183.956685 432.336892c-48.266283 0-87.396489 39.131229-87.396489 87.396489L96.560196 716.37497c0 48.269353 39.129182 87.396489 87.396489 87.396489l196.643636 0c48.264237 0 87.396489-39.127136 87.396489-87.396489l0-196.641589C467.99681 471.469144 428.865581 432.336892 380.600321 432.336892zM380.600321 672.678772c0 24.13263-19.565615 43.696198-43.700291 43.696198L227.65493 716.37497c-24.13263 0-43.698245-19.563568-43.698245-43.696198l0-109.2451c0-24.134677 19.565615-43.700291 43.698245-43.700291l109.2451 0c24.134677 0 43.700291 19.565615 43.700291 43.700291L380.600321 672.678772z"  horiz-adv-x="1024" />

    
    <glyph glyph-name="shipinbofangyingpian" unicode="&#59279;" d="M832 768 128 768C57.344 768 0 710.656 0 640l0-576c0-70.656 57.344-128 128-128l704 0c70.656 0 128 57.344 128 128L960 640C960 710.656 902.656 768 832 768zM896 64c0-35.392-28.608-64-64-64L128 0c-35.392 0-64 28.608-64 64L64 640c0 35.392 28.608 64 64 64l704 0c35.392 0 64-28.608 64-64L896 64zM368.448 571.456C358.592 577.344 346.24 577.472 336.192 571.904 326.208 566.208 320 555.52 320 544l0-384c0-11.584 6.208-22.144 16.192-27.904C341.12 129.344 346.56 128 352 128c5.696 0 11.392 1.472 16.448 4.544l320.064 192C698.048 330.304 704 340.736 704 352s-5.952 21.632-15.488 27.456L368.448 571.456zM384 216.512 384 487.488 609.792 352 384 216.512z"  horiz-adv-x="1024" />

    
    <glyph glyph-name="home" unicode="&#58888;" d="M607.601-29.363h-290.209c-85.506 0-155.468 69.962-155.468 155.468v229.314h-86.801c-10.365 0-20.731 6.479-24.615 16.842s-1.294 22.026 6.479 28.502l456.037 404.214c10.365 9.068 24.615 9.068 34.981 0l456.037-404.214c7.773-7.773 10.365-18.139 6.479-28.502s-12.955-16.842-24.615-16.842h-86.801v-229.314c0-54.414-27.204-102.352-72.553-132.146-11.662-7.773-28.502-3.888-36.274 7.773-7.773 11.662-3.888 28.502 7.773 36.274 29.798 19.435 47.936 51.826 47.936 88.098v255.227c0 14.253 11.662 25.908 25.908 25.908h45.342l-388.67 343.325-388.67-343.325h45.342c14.253 0 25.908-11.662 25.908-25.908v-255.227c0-57.005 46.64-103.645 103.645-103.645h290.209c14.253 0 25.908-11.662 25.908-25.908s-9.068-25.908-23.323-25.908zM607.601-29.363c-14.253 0-25.908 11.662-25.908 25.908s11.662 25.908 25.908 25.908c22.026 0 38.866 16.842 38.866 38.866v187.856c0 22.026-16.842 38.866-38.866 38.866h-151.582c-22.026 0-38.866-16.842-38.866-38.866v-120.49c0-14.253-11.662-25.908-25.908-25.908s-25.908 11.662-25.908 25.908v120.49c0 50.528 40.161 90.691 90.691 90.691h151.582c50.528 0 90.691-40.161 90.691-90.691v-187.856c0-49.23-40.161-90.691-90.691-90.691z"  horiz-adv-x="1040" />

    
    <glyph glyph-name="sina" unicode="&#58976;" d="M385.55237 161.587652c7.902977 12.983462 10.16097 25.966924 6.209482 39.514884-3.951488 13.54796-12.418964 23.144432-25.966924 28.789416-12.983462 5.080485-27.095921 5.644983-41.772878 0.564498-14.676957-5.080485-26.531422-13.54796-34.434399-26.531422-8.467475-12.983462-10.725469-25.966924-7.338479-39.514884 3.38699-12.983462 11.854465-22.579934 24.837927-28.789416 12.983462-6.209482 27.095921-6.77398 42.337376-1.693495C365.23043 139.572216 377.084895 148.60419 385.55237 161.587652L385.55237 161.587652zM439.179713 231.020948c2.822492 5.080485 3.951488 10.16097 2.257993 15.241455-1.693495 5.080485-5.080485 8.467475-10.16097 10.725469-5.080485 1.693495-10.725469 1.693495-16.370452-0.564498-5.644983-2.257993-9.596472-5.644983-12.418964-10.725469-6.209482-11.854465-3.951488-20.32194 7.338479-25.966924 5.080485-1.693495 10.725469-1.693495 16.370452 0S436.92172 225.940463 439.179713 231.020948L439.179713 231.020948zM538.531422 169.490628c-16.93495-38.950386-47.417861-67.739802-90.319735-85.803749-42.901874-18.628445-85.803749-20.886439-128.141125-6.77398-40.643881 12.983462-68.868798 37.256891-84.110254 72.255788-15.241455 35.563396-14.112459 71.126792 3.951488 107.254686 18.063947 35.563396 46.853363 62.094818 86.368247 79.594267 40.079383 17.499449 80.158765 21.450937 120.238148 10.725469 42.337376-11.289967 72.255788-33.869901 90.319735-68.3043C555.466373 244.00441 556.030871 207.876516 538.531422 169.490628L538.531422 169.490628zM716.9129 261.503859c-3.38699 36.692393-20.32194 69.433297-50.804851 97.658214-30.482911 28.224917-69.997795 49.111356-119.109151 62.659316C497.887541 434.804851 445.953693 438.75634 390.068357 433.111356c-84.674752-9.031974-155.237045-35.563396-211.122381-81.287762-55.885336-45.159868-81.287762-95.964719-75.642778-151.850055 3.38699-36.692393 20.32194-69.433297 50.804851-97.658214 30.482911-28.224917 69.997795-49.111356 119.109151-62.659316 49.111356-13.54796 101.045204-17.499449 156.93054-11.854465 84.674752 9.031974 155.237045 35.563396 211.122381 81.287762C697.155458 154.813671 722.557883 205.618523 716.9129 261.503859L716.9129 261.503859zM893.036384 259.245865c0-25.966924-6.77398-52.498346-20.886439-80.158765-14.112459-27.095921-34.998897-53.627343-62.094818-78.46527-27.660419-24.837927-59.272326-47.417861-96.529217-67.175303-36.692393-19.757442-79.594267-35.563396-129.270121-47.417861-49.111356-11.854465-101.045204-17.499449-154.672547-18.063947-53.627343 0-106.125689 6.209482-156.93054 19.192944-50.804851 12.983462-97.093716 30.482911-137.173098 53.062845-40.643881 22.579934-73.384785 51.36935-98.222712 86.368247C12.418964 162.15215 0 199.973539 0 241.181918c0 44.030871 12.983462 90.884234 39.514884 140.560088 26.531422 49.675854 64.352811 98.787211 112.899669 147.898567 64.352811 64.352811 129.270121 109.512679 195.316428 135.479603 65.481808 25.402426 112.899669 24.273429 140.560088-3.951488 24.837927-24.273429 28.789416-64.352811 11.289967-119.673649-1.693495-5.080485-1.693495-9.031974-0.564498-11.289967 1.128997-2.257993 2.822492-3.38699 5.644983-3.951488 2.822492-0.564498 5.644983-0.564498 8.467475 0.564498 2.822492 0.564498 5.644983 1.128997 7.902977 2.257993l3.38699 1.128997c53.062845 22.579934 99.916207 33.869901 140.560088 33.869901 40.643881 0 69.997795-11.854465 87.497244-34.998897 16.93495-24.273429 16.93495-58.14333 0-102.174201-0.564498-5.080485-1.693495-9.031974-2.822492-11.289967-1.128997-2.822492 0-5.080485 2.822492-7.338479 2.822492-2.257993 5.080485-3.38699 6.77398-4.515987 1.693495-0.564498 5.080485-1.693495 9.596472-3.38699 21.450937-6.77398 41.208379-15.805954 58.707828-27.095921 17.499449-11.289967 32.740904-26.531422 45.724366-46.853363C886.262404 306.099228 893.036384 283.519294 893.036384 259.245865L893.036384 259.245865zM850.699008 616.573319c15.805954-18.063947 26.531422-38.950386 31.047409-62.094818s3.38699-45.724366-3.951488-67.175303c-2.822492-9.031974-8.467475-15.241455-16.93495-19.757442-8.467475-3.951488-16.93495-5.080485-25.402426-2.257993-9.031974 2.822492-15.241455 8.467475-19.192944 16.93495-3.951488 8.467475-5.080485 16.93495-2.257993 25.402426 7.338479 24.273429 2.822492 45.159868-13.54796 63.788313-16.93495 18.063947-37.256891 24.837927-60.965821 20.32194-9.031974-1.693495-17.499449-0.564498-25.966924 4.515987-7.902977 5.080485-12.983462 11.854465-14.112459 21.450937-1.693495 9.031974-0.564498 17.499449 4.515987 25.402426 5.080485 7.902977 11.854465 12.983462 20.886439 14.676957 22.579934 5.080485 45.724366 3.951488 67.739802-3.38699C815.70011 647.056229 834.893054 634.637266 850.699008 616.573319L850.699008 616.573319zM954.002205 710.280044c33.305402-36.692393 54.75634-79.029768 64.352811-127.576626 9.596472-48.546858 7.338479-94.271224-7.902977-138.302095-3.38699-10.16097-10.16097-18.063947-19.192944-23.144432-9.596472-5.080485-19.192944-5.644983-29.918412-2.257993-10.16097 3.38699-18.063947 10.16097-22.579934 19.757442-5.080485 9.596472-5.644983 19.192944-2.822492 29.918412 10.725469 31.047409 12.418964 64.352811 5.644983 98.787211-6.77398 34.434399-22.015436 64.352811-45.724366 90.319735-23.708931 26.531422-51.933848 44.595369-84.674752 54.75634-32.740904 10.16097-65.481808 11.854465-98.787211 5.080485-10.725469-2.257993-20.32194-0.564498-29.918412 5.644983-9.031974 5.644983-14.676957 14.112459-16.93495 24.837927-2.257993 10.725469-0.564498 20.32194 5.644983 29.353914 5.644983 9.031974 14.112459 14.676957 24.837927 16.93495 46.853363 10.16097 93.142227 7.902977 139.431092-6.77398C881.181918 772.939361 920.696803 747.536935 954.002205 710.280044L954.002205 710.280044zM954.002205 710.280044"  horiz-adv-x="1025" />

    
    <glyph glyph-name="shang" unicode="&#58911;" d="M937.165818 162.497187c8.93551 8.958022 7.868201 24.607444-2.312672 34.877345L531.191596 603.259726c-5.779633 5.846148-13.271258 8.581446-20.306488 8.314363-7.081279 0.331551-14.638395-2.423189-20.463054-8.270361L86.770737 197.374532c-10.225899-10.269901-11.248182-25.875321-2.322905-34.877345 8.946766-8.960069 24.451902-7.936763 34.666544 2.334161l391.68068 393.880789 391.691937-393.880789C912.712893 154.560424 928.228261 153.537118 937.165818 162.497187z"  horiz-adv-x="1024" />

    
    <glyph glyph-name="xia" unicode="&#58932;" d="M902.488017 603.168652 510.795057 209.28684l-391.68068 393.880789c-10.214642 10.270924-25.719778 11.294231-34.666544 2.334161-8.925277-9.002025-7.902994-24.607444 2.322905-34.877345l403.651316-405.930219c5.824659-5.847172 13.381775-8.601912 20.463054-8.270361 7.03523-0.267083 14.525831 2.468215 20.306488 8.314363l403.662573 405.886217c10.180873 10.269901 11.248182 25.919323 2.312672 34.877345C928.228261 614.462882 912.712893 613.439576 902.488017 603.168652z"  horiz-adv-x="1024" />

    
    <glyph glyph-name="you" unicode="&#58937;" d="M289.301454-42.361551c8.958022-8.93551 24.607444-7.868201 34.877345 2.312672l405.886217 403.662573c5.846148 5.780657 8.581446 13.271258 8.314363 20.306488 0.331551 7.080256-2.423189 14.637372-8.270361 20.463054L324.178799 808.033529c-10.269901 10.225899-25.875321 11.248182-34.877345 2.322905-8.960069-8.946766-7.936763-24.451902 2.334161-34.666544l393.880789-391.68068L291.635615-7.68375C281.364691-17.908626 280.341385-33.423995 289.301454-42.361551z"  horiz-adv-x="1024" />

    
    <glyph glyph-name="zuo" unicode="&#58943;" d="M729.972918-7.68375l-393.880789 391.691937 393.880789 391.68068c10.270924 10.214642 11.294231 25.719778 2.334161 34.666544-9.002025 8.925277-24.607444 7.902994-34.877345-2.322905L291.499515 404.382213c-5.846148-5.824659-8.601912-13.382798-8.270361-20.463054-0.267083-7.03523 2.468215-14.525831 8.314363-20.306488l405.885194-403.662573c10.269901-10.180873 25.919323-11.248182 34.877345-2.312672C741.267149-33.423995 740.243843-17.908626 729.972918-7.68375z"  horiz-adv-x="1024" />

    
    <glyph glyph-name="list" unicode="&#58917;" d="M436.555 585.921l426.325 0c37.251 0 67.397 30.198 67.397 67.424s-30.146 67.409-67.397 67.409l-426.325 0c-37.234 0-67.417-30.184-67.417-67.409s30.184-67.424 67.417-67.424zM240.37 720.754l-80.854 0c-37.24 0-67.424-30.184-67.424-67.409s30.184-67.424 67.424-67.424l80.854 0c37.248 0 67.432 30.198 67.432 67.424s-30.184 67.409-67.432 67.409zM862.88 451.088l-426.325 0c-37.234 0-67.417-30.184-67.417-67.409 0-37.228 30.184-67.424 67.417-67.424l426.325 0c37.251 0 67.397 30.196 67.397 67.424 0 37.225-30.147 67.409-67.397 67.409zM240.37 451.088l-80.854 0c-37.24 0-67.424-30.184-67.424-67.409 0-37.228 30.184-67.424 67.424-67.424l80.854 0c37.248 0 67.432 30.196 67.432 67.424 0 37.225-30.184 67.409-67.432 67.409zM862.88 181.435l-426.325 0c-37.234 0-67.417-30.195-67.417-67.416 0-37.234 30.184-67.423 67.417-67.423l426.325 0c37.251 0 67.397 30.189 67.397 67.423 0 37.222-30.147 67.416-67.397 67.416zM240.37 181.435l-80.854 0c-37.24 0-67.424-30.195-67.424-67.416 0-37.234 30.184-67.423 67.424-67.423l80.854 0c37.248 0 67.432 30.189 67.432 67.423 0 37.222-30.184 67.416-67.432 67.416z"  horiz-adv-x="1024" />

    
    <glyph glyph-name="crown1" unicode="&#58933;" d="M898.271484 519.858224c-35.521005 0-64.337307-28.686343-64.337307-64.149019 0-20.682042 9.797134-39.025828 24.978904-50.771337l-172.155918-132.61025L534.199605 560.463014c24.633027 9.036817 42.164309 32.626072 42.164309 60.298318 0 35.447327-28.815279 64.163345-64.392566 64.163345-35.521005 0-64.337307-28.716019-64.337307-64.163345 0-27.672246 17.531282-51.260477 42.164309-60.298318L337.237721 272.328641l-172.152848 132.61025c15.182794 11.744485 24.979928 30.089295 24.979928 50.771337 0 35.462676-28.819372 64.149019-64.337307 64.149019-35.577287 0-64.392566-28.686343-64.392566-64.149019 0-35.447327 28.816303-64.205301 64.392566-64.205301 5.786797 0 11.401678 0.771573 16.727986 2.206248l56.830333-258.948657c0-55.712883 140.013871-100.843756 312.685535-100.843756 172.724877 0 312.740794 45.12985 312.740794 100.843756l56.830333 258.948657c5.326309-1.434675 10.94119-2.206248 16.727986-2.206248 35.577287 0 64.392566 28.756951 64.392566 64.205301C962.66405 491.171881 933.848771 519.858224 898.271484 519.858224L898.271484 519.858224z"  horiz-adv-x="1024" />

    
    <glyph glyph-name="message" unicode="&#59005;" d="M219.59844 670.679231l585.137741 0c39.959084 0 72.629157-31.498388 73.131601-70.28374L512.376577 401.85874 146.802484 600.22767C147.137105 639.097956 179.556469 670.679231 219.59844 670.679231L219.59844 670.679231M146.802484 555.435511l-0.334621-382.437156c0-39.120996 32.921807-71.121827 73.131601-71.121827l585.137741 0c40.209794 0 73.131601 32.000831 73.131601 71.121827L877.868805 555.603333l-356.946598-189.32188c-5.445012-2.931772-12.062733-2.931772-17.507746 0L146.802484 555.435511 146.802484 555.435511"  horiz-adv-x="1024" />

    
    <glyph glyph-name="color" unicode="&#59232;" d="M811.984589 567.447871c-57.139501 0-101.497797-44.358297-101.497798-101.497798s44.358297-101.497797 101.497798-101.497797 101.497797 44.358297 101.497797 101.497797c0.751836 57.139501-44.358297 101.497797-101.497797 101.497798z m0-163.900147c-35.33627 0-62.402349 27.066079-62.40235 62.402349 0 35.33627 27.066079 62.402349 62.40235 62.40235 35.33627 0 62.402349-27.066079 62.402349-62.40235 0-35.33627-26.314244-62.402349-62.402349-62.402349zM211.267995 567.447871c-57.139501 0-101.497797-44.358297-101.497797-101.497798s44.358297-101.497797 101.497797-101.497797 101.497797 44.358297 101.497798 101.497797-44.358297 101.497797-101.497798 101.497798z m0-163.900147c-35.33627 0-62.402349 27.066079-62.402349 62.402349 0 35.33627 27.066079 62.402349 62.402349 62.40235 35.33627 0 62.402349-27.066079 62.40235-62.40235 0-35.33627-27.066079-62.402349-62.40235-62.402349zM750.334075 684.734214c0 57.139501-44.358297 101.497797-101.497798 101.497798s-101.497797-44.358297-101.497797-101.497798 44.358297-101.497797 101.497797-101.497797c56.387665 0 101.497797 44.358297 101.497798 101.497797z m-102.249633-62.402349c-35.33627 0-62.402349 27.066079-62.40235 62.402349 0 35.33627 27.066079 62.402349 62.40235 62.40235s62.402349-27.066079 62.402349-62.40235c0-35.33627-26.314244-62.402349-62.402349-62.402349zM375.168142 786.232012c-57.139501 0-101.497797-44.358297-101.497797-101.497798s44.358297-101.497797 101.497797-101.497797S476.665939 627.594714 476.665939 684.734214s-44.358297 101.497797-101.497797 101.497798z m0-163.900147c-35.33627 0-62.402349 27.066079-62.402349 62.402349 0 35.33627 27.066079 62.402349 62.402349 62.40235 35.33627 0 62.402349-27.066079 62.40235-62.40235 0-35.33627-27.066079-62.402349-62.40235-62.402349zM272.166674-25.750367l62.402349-27.817915c54.883994-22.555066 115.030837-34.584435 177.433187-34.584435 35.33627 0 62.402349 27.066079 62.402349 62.40235 0 15.788546-6.014684 30.073421-15.788546 40.599119-18.044053 18.044053-27.817915 42.10279-27.817915 68.417034 0 57.139501 44.358297 101.497797 101.497797 101.497797h98.490456c139.84141 0 253.368576 113.527166 253.368575 253.368576 0 230.061674-212.017621 417.268722-472.152716 417.268722C251.115279 856.152717 39.849493 644.135095 39.849493 384c0-124.052863 43.606461-231.565345 121.797357-316.522761 3.759178-15.036711-3.007342-25.562408-16.540382-26.314243-9.022026-0.751836-18.795888 8.270191-18.795888 8.27019l-4.511014 3.759178c-4.511013 5.262849-8.270191 9.773862-12.781204 15.036711-67.665198 87.212922-109.016153 196.98091-109.016152 315.770925 0 281.938326 229.309838 511.248164 511.248164 511.248164s511.248164-205.251101 511.248165-457.116005c0-161.64464-131.571219-293.215859-293.215859-293.215859H632.295895c-35.33627 0-62.402349-27.066079-62.402349-62.40235 0-15.788546 6.014684-30.073421 15.788546-40.599119 18.044053-18.044053 27.817915-42.10279 27.817915-68.417034 0-57.139501-44.358297-101.497797-101.497797-101.497797-93.227606 0-180.440529 24.810573-255.624083 68.417034-0.751836 0.751836-17.292217 28.56975 15.788547 33.832599z"  horiz-adv-x="1026" />

    
    <glyph glyph-name="download" unicode="&#59113;" d="M955.076923 285.538462h-59.076923c-15.753846 0-29.538462-13.784615-29.538462-29.538462v-196.923077c0-15.753846-13.784615-29.538462-29.538461-29.538461h-649.846154c-15.753846 0-29.538462 13.784615-29.538461 29.538461v196.923077c0 15.753846-13.784615 29.538462-29.538462 29.538462h-59.076923c-15.753846 0-29.538462-13.784615-29.538462-29.538462V-9.846154c0-43.323077 35.446154-78.769231 78.769231-78.769231h787.692308c43.323077 0 78.769231 35.446154 78.769231 78.769231V256c0 15.753846-13.784615 29.538462-29.538462 29.538462zM492.307692 155.569231c11.815385-11.815385 29.538462-11.815385 41.353846 0l265.846154 265.846154c11.815385 11.815385 11.815385 29.538462 0 41.353846l-41.353846 41.353846c-11.815385 11.815385-29.538462 11.815385-41.353846 0l-110.276923-110.276923c-11.815385-11.815385-33.476923-3.938462-33.476923 13.784615V827.076923C571.076923 842.830769 555.323077 856.615385 541.538462 856.615385h-59.076924c-15.753846 0-29.538462-13.784615-29.538461-29.538462v-417.476923c0-17.723077-21.661538-25.6-33.476923-13.784615l-110.276923 110.276923c-11.815385 11.815385-29.538462 11.815385-41.353846 0L226.461538 462.769231c-11.815385-11.815385-11.815385-29.538462 0-41.353846L492.307692 155.569231z"  horiz-adv-x="1024" />

    
    <glyph glyph-name="ranking" unicode="&#59053;" d="M672 0c-17.6 0-32 14.4-32 32V704c0 17.6-14.4 32-32 32H416c-17.6 0-32-14.4-32-32v-672c0-17.6-14.4-32-32-32s-32 14.4-32 32V704c0 52.8 43.2 96 96 96h192c52.8 0 96-43.2 96-96v-672c0-17.6-14.4-32-32-32zM864-32H160c-52.8 0-96 43.2-96 96V320c0 52.8 43.2 96 96 96h64c17.6 0 32-14.4 32-32s-14.4-32-32-32h-64c-17.6 0-32-14.4-32-32v-256c0-17.6 14.4-32 32-32h704c17.6 0 32 14.4 32 32V512c0 17.6-14.4 32-32 32h-64c-17.6 0-32 14.4-32 32s14.4 32 32 32h64c52.8 0 96-43.2 96-96v-448c0-52.8-43.2-96-96-96z"  horiz-adv-x="1024" />

    
    <glyph glyph-name="danmu1" unicode="&#58916;" d="M110.964364-127.720727c-60.509091 0-109.847273 48.872727-109.847273 108.916363V786.990545C1.117091 847.034182 50.455273 896 110.964364 896h1081.902545c60.509091 0 109.847273-48.872727 109.847273-108.916364v-805.794909c0-60.043636-49.338182-108.916364-109.847273-108.916363H110.964364z m0 927.650909c-6.609455 0-12.101818-5.771636-12.101819-12.939637v-805.794909c0-7.168 5.492364-13.032727 12.101819-13.032727h1081.902545c6.609455 0 12.101818 5.864727 12.101818 13.032727V786.990545c0 7.168-5.492364 13.032727-12.101818 13.032728H110.964364zM1003.054545 375.901091a51.572364 51.572364 0 0 0-50.26909-52.689455h-80.058182a51.572364 51.572364 0 0 0-50.269091 52.689455c0 29.137455 22.434909 52.782545 50.269091 52.782545h80.058182c27.834182 0 50.269091-23.645091 50.26909-52.782545zM1096.610909 625.850182c0-28.858182-22.341818-52.410182-49.989818-52.410182H232.541091a51.293091 51.293091 0 0 0-50.082909 52.410182c0 29.044364 22.434909 52.503273 50.082909 52.503273h814.08c27.648 0 50.082909-23.458909 50.082909-52.503273zM768.744727 375.901091c0-28.858182-22.341818-52.410182-50.082909-52.410182H232.541091a51.293091 51.293091 0 0 0-50.082909 52.410182c0 29.044364 22.434909 52.503273 50.082909 52.503273H718.661818c27.648 0 50.082909-23.458909 50.082909-52.503273zM1096.610909 160.023273c0-29.044364-22.341818-52.503273-49.989818-52.503273H560.500364a51.293091 51.293091 0 0 0-50.082909 52.503273c0 28.951273 22.341818 52.410182 50.082909 52.410182h486.120727c27.648 0 50.082909-23.458909 50.082909-52.410182z"  horiz-adv-x="1303" />

    
    <glyph glyph-name="shouyeweixuanzhong" unicode="&#58975;" d="M849.455 102.4c0-67.491-58.182-125.673-128-125.673h-418.909c-72.145 0-128 58.182-128 125.673v302.545h-58.182v-302.545c0-100.073 86.109-183.855 186.182-183.855h418.909c104.727 0 186.182 81.455 186.182 183.855v302.545h-58.182v-302.545zM989.091 458.473l-463.127 386.327c-9.309 6.982-20.945 6.982-30.255 0l-460.8-386.327c-11.636-9.309-13.964-27.927-4.655-39.564s27.927-13.964 41.891-4.655l439.855 367.709 439.855-367.709c11.636-9.309 30.255-6.982 41.891 4.655s9.309 30.255-4.655 39.564zM535.273 372.364c18.618 0 34.909-16.291 34.909-34.909v-46.545c0-18.618-16.291-34.909-34.909-34.909h-46.545c-18.618 0-34.909 16.291-34.909 34.909v46.545c0 18.618 16.291 34.909 34.909 34.909h46.545M535.273 430.545h-46.545c-51.2 0-93.091-41.891-93.091-93.091v-46.545c0-51.2 41.891-93.091 93.091-93.091h46.545c51.2 0 93.091 41.891 93.091 93.091v46.545c0 51.2-41.891 93.091-93.091 93.091z"  horiz-adv-x="1024" />

    
    <glyph glyph-name="fenquweixuanzhong" unicode="&#58977;" d="M512 802.909091c102.4 0 186.181818-83.781818 186.181818-186.181818s-83.781818-186.181818-186.181818-186.181818-186.181818 83.781818-186.181818 186.181818 83.781818 186.181818 186.181818 186.181818m0 58.181818c-134.981818 0-244.363636-109.381818-244.363636-244.363636S377.018182 372.363636 512 372.363636 756.363636 481.745455 756.363636 616.727273 646.981818 861.090909 512 861.090909zM244.363636 337.454545c102.4 0 186.181818-83.781818 186.181819-186.181818s-83.781818-186.181818-186.181819-186.181818-186.181818 83.781818-186.181818 186.181818 83.781818 186.181818 186.181818 186.181818m0 58.181819C109.381818 395.636364 0 286.254545 0 151.272727s109.381818-244.363636 244.363636-244.363636S488.727273 16.290909 488.727273 151.272727s-109.381818 244.363636-244.363637 244.363637zM779.636364 337.454545c102.4 0 186.181818-83.781818 186.181818-186.181818s-83.781818-186.181818-186.181818-186.181818-186.181818 83.781818-186.181819 186.181818 83.781818 186.181818 186.181819 186.181818m0 58.181819C644.654545 395.636364 535.272727 286.254545 535.272727 151.272727s109.381818-244.363636 244.363637-244.363636S1024 16.290909 1024 151.272727s-109.381818 244.363636-244.363636 244.363637z"  horiz-adv-x="1024" />

    
    <glyph glyph-name="dongtaiweixuanzhong" unicode="&#58978;" d="M889.018182 332.8c2.327273 4.654545 104.727273 134.981818 114.036363 176.872727 2.327273 18.618182-9.309091 37.236364-13.963636 44.218182-34.909091 48.872727-100.072727 104.727273-153.6 134.981818-30.254545 16.290909-62.836364 25.6-95.418182 34.909091-34.909091 9.309091-69.818182 13.963636-102.4 13.963637-6.981818 0-16.290909-4.654545-20.945454-9.309091-6.981818-4.654545-9.309091-11.636364-9.309091-20.945455 0-6.981818 4.654545-13.963636 9.309091-18.618182 4.654545-6.981818 11.636364-9.309091 20.945454-9.309091 25.6 0 55.854545-4.654545 88.436364-6.981818 27.927273-6.981818 55.854545-18.618182 83.781818-32.581818s128-86.109091 130.327273-123.345455c-4.654545-23.272727-109.381818-165.236364-109.381818-165.236363-6.981818-9.309091-4.654545-16.290909-2.327273-25.6 18.618182-55.854545 16.290909-144.290909 6.981818-186.181818-6.981818-27.927273-13.963636-53.527273-25.6-79.127273-11.636364-27.927273-32.581818-65.163636-51.2-83.781818-11.636364 2.327273-114.036364 48.872727-125.672727 51.2-6.981818 0-13.963636 0-18.618182-2.327273-32.581818-16.290909-148.945455-67.490909-188.509091-69.818182-25.6-2.327273-53.527273-2.327273-81.454545 0-27.927273 2.327273-69.818182 11.636364-86.109091 25.6-13.963636 11.636364-4.654545 141.963636-13.963637 158.254546s-69.818182 69.818182-83.781818 90.763636c-18.618182 23.272727-32.581818 46.545455-44.218182 72.145455-13.963636 25.6-23.272727 53.527273-27.927272 81.454545-4.654545 30.254545-6.981818 88.436364-4.654546 93.090909 0 0 158.254545 67.490909 165.236364 76.8 13.963636 11.636364 44.218182 83.781818 60.509091 109.381818s39.563636 51.2 60.509091 69.818182c25.6 20.945455 51.2 37.236364 83.781818 53.527273 25.6 13.963636 53.527273 25.6 83.781818 30.254545 6.981818 2.327273 13.963636 4.654545 18.618182 13.963637 2.327273 4.654545 4.654545 11.636364 2.327273 20.945454 0 4.654545-6.981818 13.963636-11.636364 16.290909-4.654545 4.654545-11.636364 4.654545-20.945455 4.654546-37.236364-6.981818-69.818182-18.618182-102.4-34.909091-30.254545-16.290909-60.509091-34.909091-88.436363-60.509091-25.6-20.945455-51.2-48.872727-72.145455-79.127273-18.618182-30.254545-37.236364-76.8-51.2-102.4-34.909091-16.290909-137.309091-55.854545-137.309091-55.854545s-27.927273-11.636364-37.236363-23.272728c-11.636364-13.963636-13.963636-37.236364-13.963637-46.545454 0-32.581818 2.327273-65.163636 6.981818-97.745455 9.309091-32.581818 16.290909-62.836364 30.254546-93.090909 13.963636-30.254545 30.254545-58.181818 51.2-86.109091 18.618182-23.272727 74.472727-79.127273 74.472727-79.127272s-2.327273-88.436364 6.981818-139.636364c2.327273-16.290909 9.309091-30.254545 13.963637-34.909091 25.6-25.6 97.745455-41.890909 130.327272-44.218182 83.781818-2.327273 141.963636 6.981818 190.836364 23.272728 27.927273 9.309091 74.472727 37.236364 86.109091 44.218181h4.654545l134.981819-51.2c6.981818-2.327273 25.6 0 32.581818 4.654546 6.981818 4.654545 20.945455 25.6 27.927273 32.581818 27.927273 30.254545 69.818182 132.654545 79.127272 179.2 6.981818 32.581818 9.309091 62.836364 9.309091 95.418182-2.327273 32.581818-4.654545 65.163636-13.963636 95.418182-2.327273 6.981818 0 11.636364 0 13.963636zM651.636364 360.727273m-58.181819 0a58.181818 58.181818 0 1 1 116.363637 0 58.181818 58.181818 0 1 1-116.363637 0ZM318.836364 253.672727c11.636364-11.636364 30.254545-11.636364 41.890909 0l81.454545 81.454546c9.309091 9.309091 9.309091 25.6-2.327273 34.909091L349.090909 437.527273c-13.963636 9.309091-30.254545 6.981818-39.563636-6.981818-9.309091-13.963636-6.981818-30.254545 6.981818-39.563637l55.854545-41.890909-53.527272-53.527273c-11.636364-11.636364-11.636364-30.254545 0-41.890909z"  horiz-adv-x="1024" />

    
    <glyph glyph-name="danmushu" unicode="&#58981;" d="M800 768H224C134.4 768 64 697.6 64 608v-448c0-89.6 70.4-160 160-160h576c89.6 0 160 70.4 160 160V608c0 89.6-70.4 160-160 160z m96-608c0-54.4-41.6-96-96-96H224c-54.4 0-96 41.6-96 96V608c0 54.4 41.6 96 96 96h576c54.4 0 96-41.6 96-96v-448zM240 512h64v-64h-64zM368 512h384v-64h-384zM432 320h352v-64h-352zM304 320h64v-64h-64z"  horiz-adv-x="1024" />

    
    <glyph glyph-name="zhuifanshu" unicode="&#58982;" d="M512 0c-6.4 0-16 3.2-22.4 6.4-28.8 22.4-275.2 214.4-326.4 288-57.6 76.8-67.2 118.4-67.2 192C96 640 208 768 348.8 768c60.8 0 118.4-22.4 163.2-64 44.8 41.6 102.4 64 163.2 64 140.8 0 252.8-128 252.8-281.6 0-70.4-9.6-112-67.2-192-51.2-70.4-300.8-265.6-326.4-288-6.4-3.2-16-6.4-22.4-6.4zM358.4 704C256 704 160 595.2 160 473.6c0-38.4 0-83.2 48-150.4 38.4-51.2 214.4-185.6 304-259.2 89.6 73.6 265.6 208 304 259.2 48 67.2 48 115.2 48 150.4C864 595.2 768 704 665.6 704c-54.4 0-89.6-25.6-134.4-64-12.8-9.6-19.2-9.6-19.2-9.6s-6.4 0-16 6.4C448 675.2 412.8 704 358.4 704z"  horiz-adv-x="1024" />

    
    <glyph glyph-name="bofangshu" unicode="&#58983;" d="M800 768H224C134.4 768 64 697.6 64 608v-448c0-89.6 70.4-160 160-160h576c89.6 0 160 70.4 160 160V608c0 89.6-70.4 160-160 160z m96-608c0-54.4-41.6-96-96-96H224c-54.4 0-96 41.6-96 96V608c0 54.4 41.6 96 96 96h576c54.4 0 96-41.6 96-96v-448zM684.8 412.8l-256 112c-22.4 9.6-44.8-6.4-44.8-28.8v-224c0-22.4 22.4-38.4 44.8-28.8l256 112c25.6 9.6 25.6 48 0 57.6z"  horiz-adv-x="1024" />

    
    <glyph glyph-name="UPzhu" unicode="&#58984;" d="M800 768H224C134.4 768 64 697.6 64 608v-448c0-89.6 70.4-160 160-160h576c89.6 0 160 70.4 160 160V608c0 89.6-70.4 160-160 160z m96-608c0-54.4-41.6-96-96-96H224c-54.4 0-96 41.6-96 96V608c0 54.4 41.6 96 96 96h576c54.4 0 96-41.6 96-96v-448zM419.2 352c0-51.2-3.2-108.8-83.2-108.8S252.8 300.8 252.8 352v217.6H192v-243.2c0-96 51.2-140.8 140.8-140.8 89.6 0 147.2 48 147.2 144v240h-60.8V352zM710.4 569.6h-156.8V192h60.8v147.2h96c102.4 0 121.6 67.2 121.6 115.2 0 44.8-19.2 115.2-121.6 115.2z m-3.2-179.2h-92.8V512h92.8c32 0 60.8-12.8 60.8-60.8 0-44.8-32-60.8-60.8-60.8z"  horiz-adv-x="1024" />

    
    <glyph glyph-name="Bbi" unicode="&#58985;" d="M512 832c246.4 0 448-198.4 448-448 0-246.4-201.6-448-448-448-249.6 0-448 201.6-448 448C64 633.6 262.4 832 512 832z m28.8-300.8v-70.4h172.8v-230.4h-57.6v176h-115.2V0c198.4 16 355.2 182.4 355.2 384 0 214.4-172.8 384-384 384C297.6 768 128 598.4 128 384c0-201.6 156.8-368 355.2-384V403.2h-115.2v-176H310.4v233.6h172.8v67.2l-169.6-16-3.2 28.8-3.2 28.8 403.2 35.2 3.2-28.8 3.2-28.8-176-16z"  horiz-adv-x="1024" />

    
    <glyph glyph-name="shoucang" unicode="&#58986;" d="M905.6 540.8l-166.4 25.6c-41.6 6.4-80 35.2-96 73.6l-73.6 153.6c-22.4 51.2-92.8 51.2-118.4 0L380.8 640c-19.2-38.4-54.4-67.2-96-73.6l-166.4-25.6c-51.2-6.4-73.6-70.4-35.2-108.8l124.8-128c28.8-28.8 41.6-70.4 35.2-112l-28.8-179.2c-9.6-54.4 48-92.8 96-67.2l140.8 76.8c38.4 22.4 86.4 22.4 124.8 0l140.8-76.8c48-25.6 102.4 12.8 96 67.2l-32 179.2c-6.4 41.6 6.4 83.2 35.2 112l124.8 128c38.4 38.4 16 102.4-35.2 108.8z m-28.8-83.2l-105.6-108.8c-41.6-41.6-60.8-102.4-51.2-163.2l25.6-153.6c3.2-12.8-12.8-22.4-22.4-16l-118.4 64c-57.6 32-128 32-185.6 0l-118.4-64c-12.8-6.4-25.6 3.2-22.4 16l25.6 153.6c9.6 57.6-9.6 118.4-51.2 163.2l-105.6 108.8c-9.6 9.6-3.2 25.6 9.6 25.6l134.4 19.2c64 9.6 118.4 51.2 144 108.8l60.8 131.2c6.4 12.8 22.4 12.8 28.8 0l60.8-131.2c25.6-57.6 80-96 144-105.6l134.4-19.2c16-6.4 19.2-19.2 12.8-28.8z"  horiz-adv-x="1024" />

    
    <glyph glyph-name="shoucangtianchong" unicode="&#58987;" d="M905.6 540.8l-166.4 25.6c-41.6 6.4-80 35.2-96 73.6l-73.6 153.6c-22.4 51.2-92.8 51.2-118.4 0L380.8 640c-19.2-38.4-54.4-67.2-96-73.6l-166.4-25.6c-51.2-6.4-73.6-70.4-35.2-108.8l124.8-128c28.8-28.8 41.6-70.4 35.2-112l-28.8-179.2c-9.6-54.4 48-92.8 96-67.2l140.8 76.8c38.4 22.4 86.4 22.4 124.8 0l140.8-76.8c48-25.6 102.4 12.8 96 67.2l-32 179.2c-6.4 41.6 6.4 83.2 35.2 112l124.8 128c38.4 38.4 16 102.4-35.2 108.8z"  horiz-adv-x="1024" />

    
    <glyph glyph-name="suijibofang" unicode="&#58988;" d="M844.8 230.4c-6.4 6.4-16 12.8-25.6 9.6-19.2 0-35.2-16-35.2-35.2 0-9.6 6.4-19.2 12.8-25.6l41.6-41.6c-44.8 6.4-86.4 22.4-121.6 51.2-3.2 0-3.2 3.2-6.4 6.4L332.8 592C268.8 662.4 192 700.8 99.2 700.8c-19.2 0-35.2-16-35.2-35.2s16-32 35.2-32c73.6 0 134.4-32 182.4-86.4l384-400 6.4-6.4c48-38.4 108.8-64 172.8-70.4l-48-44.8c-9.6-6.4-16-19.2-16-28.8 0-19.2 19.2-35.2 38.4-32 9.6 0 19.2 6.4 25.6 12.8l99.2 92.8c16 16 16 41.6 0 57.6l-99.2 102.4z m-3.2 556.8c-12.8 16-32 19.2-48 6.4-9.6-6.4-12.8-16-12.8-25.6 0-12.8 3.2-22.4 16-28.8l41.6-41.6c-73.6-9.6-140.8-38.4-192-89.6l-115.2-118.4c-12.8-12.8-12.8-32 0-44.8 6.4-6.4 16-9.6 25.6-9.6s19.2 3.2 25.6 9.6l112 118.4c41.6 38.4 92.8 64 147.2 70.4l-44.8-44.8c-6.4-6.4-12.8-16-12.8-25.6 0-19.2 16-35.2 32-35.2 9.6 0 19.2 3.2 28.8 9.6L950.4 640c12.8 12.8 12.8 35.2 0 48l-108.8 99.2m-438.4-448c-9.6 0-19.2-3.2-25.6-9.6l-118.4-121.6c-48-44.8-96-67.2-160-67.2H96c-19.2 0-35.2-16-35.2-35.2s16-32 35.2-32h3.2c83.2 0 147.2 32 211.2 86.4l121.6 124.8c6.4 6.4 9.6 12.8 9.6 22.4 0 9.6-3.2 16-9.6 22.4-9.6 6.4-19.2 9.6-28.8 9.6z"  horiz-adv-x="1024" />

    
    <glyph glyph-name="xunhuanbofang" unicode="&#58989;" d="M694.4 41.6H195.2l48-44.8c9.6-6.4 16-16 16-28.8-3.2-19.2-19.2-32-38.4-32-9.6 0-22.4 6.4-28.8 12.8l-108.8 96c-12.8 12.8-16 35.2 0 48L192 192c6.4 6.4 19.2 9.6 28.8 9.6 19.2 0 35.2-16 35.2-35.2 0-9.6-6.4-19.2-12.8-25.6l-41.6-38.4h496c112 0 198.4 89.6 198.4 198.4v86.4c0 19.2 12.8 32 32 32s32-12.8 32-32v-86.4c0-140.8-118.4-259.2-265.6-259.2zM329.6 726.4h496l-48 44.8c-9.6 6.4-16 16-16 28.8 3.2 19.2 19.2 32 38.4 32 9.6 0 22.4-6.4 28.8-12.8l108.8-96c12.8-12.8 16-35.2 0-48L832 576c-6.4-6.4-19.2-9.6-28.8-9.6-19.2 0-35.2 16-35.2 35.2 0 9.6 6.4 19.2 12.8 25.6l41.6 38.4H326.4C217.6 662.4 128 572.8 128 460.8v-89.6c0-19.2-12.8-32-32-32s-32 12.8-32 32v86.4C64 608 182.4 726.4 329.6 726.4z"  horiz-adv-x="1024" />

    
    <glyph glyph-name="danquxunhuan" unicode="&#58990;" d="M928 419.2c-19.2 0-32-12.8-32-32v-86.4c0-108.8-86.4-198.4-198.4-198.4H201.6l41.6 38.4c6.4 6.4 12.8 16 12.8 25.6 0 19.2-16 35.2-35.2 35.2-9.6 0-22.4-3.2-28.8-9.6l-108.8-99.2c-16-12.8-12.8-35.2 0-48l108.8-96c6.4-6.4 19.2-12.8 28.8-12.8 19.2 0 35.2 12.8 38.4 32 0 12.8-6.4 22.4-16 28.8l-48 44.8h499.2c147.2 0 265.6 118.4 265.6 259.2v86.4c0 19.2-12.8 32-32 32zM96 339.2c19.2 0 32 12.8 32 32v89.6c0 112 89.6 201.6 198.4 204.8h496l-41.6-38.4c-6.4-6.4-12.8-16-12.8-25.6 0-19.2 16-35.2 35.2-35.2 9.6 0 22.4 3.2 28.8 9.6l105.6 99.2c16 12.8 12.8 35.2 0 48l-108.8 96c-6.4 6.4-19.2 12.8-28.8 12.8-19.2 0-35.2-12.8-38.4-32 0-12.8 6.4-22.4 16-28.8l48-44.8H329.6C182.4 726.4 64 608 64 457.6v-86.4c0-19.2 12.8-32 32-32zM544 224V544h-48L416 486.4l16-41.6 60.8 41.6V224z"  horiz-adv-x="1024" />

    
    <glyph glyph-name="quanping" unicode="&#58991;" d="M864 416c-19.2 0-32-16-32-32v-275.2L236.8 704H512c19.2 0 32 12.8 32 32s-16 32-32 32H160c-19.2 0-32-16-32-32v-352c0-19.2 16-32 32-32 19.2 0 32 16 32 32V659.2L787.2 64H512c-19.2 0-32-12.8-32-32s16-32 32-32h352c16 0 32 16 32 32V384c0 19.2-16 32-32 32z"  horiz-adv-x="1024" />

    
    <glyph glyph-name="bofangqi-danmudingbukai" unicode="&#59035;" d="M186.181818 546.909091h46.545455v-46.545455H186.181818zM279.272727 546.909091h46.545455v-46.545455h-46.545455zM372.363636 546.909091h46.545455v-46.545455h-46.545455zM465.454545 546.909091h46.545455v-46.545455h-46.545455zM558.545455 546.909091h46.545454v-46.545455h-46.545454zM651.636364 546.909091h46.545454v-46.545455h-46.545454zM721.454545 686.545455H162.909091c-65.163636 0-116.363636-51.2-116.363636-116.363637v-325.818182c0-65.163636 51.2-116.363636 116.363636-116.363636h558.545454c65.163636 0 116.363636 51.2 116.363637 116.363636V570.181818c0 65.163636-51.2 116.363636-116.363637 116.363637z m69.818182-442.181819c0-39.563636-30.254545-69.818182-69.818182-69.818181H162.909091c-39.563636 0-69.818182 30.254545-69.818182 69.818181V570.181818c0 39.563636 30.254545 69.818182 69.818182 69.818182h558.545454c39.563636 0 69.818182-30.254545 69.818182-69.818182v-325.818182z"  horiz-adv-x="1024" />

    
    <glyph glyph-name="bofangqi-danmudibukai" unicode="&#59037;" d="M186.181818 314.181818h46.545455v-46.545454H186.181818zM279.272727 314.181818h46.545455v-46.545454h-46.545455zM372.363636 314.181818h46.545455v-46.545454h-46.545455zM465.454545 314.181818h46.545455v-46.545454h-46.545455zM558.545455 314.181818h46.545454v-46.545454h-46.545454zM651.636364 314.181818h46.545454v-46.545454h-46.545454zM721.454545 128H162.909091c-65.163636 0-116.363636 51.2-116.363636 116.363636V570.181818c0 65.163636 51.2 116.363636 116.363636 116.363637h558.545454c65.163636 0 116.363636-51.2 116.363637-116.363637v-325.818182c0-65.163636-51.2-116.363636-116.363637-116.363636zM162.909091 640c-39.563636 0-69.818182-30.254545-69.818182-69.818182v-325.818182c0-39.563636 30.254545-69.818182 69.818182-69.818181h558.545454c39.563636 0 69.818182 30.254545 69.818182 69.818181V570.181818c0 39.563636-30.254545 69.818182-69.818182 69.818182H162.909091z"  horiz-adv-x="1024" />

    
    <glyph glyph-name="bofangqi-danmugundongkai" unicode="&#59039;" d="M209.454545 546.909091h46.545455v-46.545455H209.454545zM302.545455 546.909091h302.545454v-46.545455H302.545455zM349.090909 430.545455h302.545455v-46.545455H349.090909zM256 430.545455h46.545455v-46.545455h-46.545455zM728.436364 684.218182H155.927273c-58.181818 0-107.054545-46.545455-107.054546-107.054546v-339.781818c0-58.181818 46.545455-107.054545 107.054546-107.054545h572.509091c58.181818 0 107.054545 48.872727 107.054545 107.054545V577.163636c0 58.181818-46.545455 107.054545-107.054545 107.054546z m65.163636-446.836364c0-37.236364-30.254545-65.163636-65.163636-65.163636H155.927273c-37.236364 0-65.163636 30.254545-65.163637 65.163636V577.163636c0 37.236364 30.254545 65.163636 65.163637 65.163637h572.509091c37.236364 0 65.163636-30.254545 65.163636-65.163637v-339.781818z"  horiz-adv-x="1024" />

    
    <glyph glyph-name="shaohouzaikan" unicode="&#59072;" d="M774.981818 325.818182c23.272727 0 39.563636-2.327273 60.509091-9.309091V609.745455C835.490909 691.2 768 756.363636 686.545455 756.363636h-418.909091C183.854545 756.363636 116.363636 691.2 116.363636 609.745455v-418.909091c0-81.454545 67.490909-146.618182 148.945455-146.618182H558.545455c-6.981818 18.618182-9.309091 39.563636-9.309091 60.509091 0 118.690909 102.4 221.090909 225.745454 221.090909m-367.709091-90.763637c-11.636364 0-23.272727 11.636364-23.272727 20.945455V542.254545c0 11.636364 11.636364 20.945455 23.272727 20.945455 6.981818 0 9.309091-2.327273 13.963637-6.981818l193.163636-139.636364c6.981818-4.654545 9.309091-11.636364 9.309091-18.618182 0-9.309091-4.654545-13.963636-9.309091-18.618181l-193.163636-139.636364c-2.327273-2.327273-9.309091-4.654545-13.963637-4.654546m367.709091 44.218182c-97.745455 0-179.2-79.127273-179.2-179.2 0-97.745455 79.127273-179.2 179.2-179.2 97.745455 0 179.2 79.127273 179.2 179.2s-79.127273 179.2-179.2 179.2m86.109091-225.745454c-9.309091-13.963636-25.6-18.618182-39.563636-9.309091l-58.181818 30.254545h-2.327273c-2.327273 0-2.327273 2.327273-4.654546 2.327273l-2.327272 2.327273-2.327273 2.327272c0 2.327273-2.327273 2.327273-2.327273 4.654546-4.654545 4.654545-4.654545 9.309091-4.654545 11.636364v60.50909c0 16.290909 11.636364 30.254545 30.254545 30.254546 16.290909 0 30.254545-11.636364 30.254546-30.254546v-41.890909l46.545454-20.945454c11.636364-6.981818 16.290909-25.6 9.309091-41.890909"  horiz-adv-x="1024" />

    
    <glyph glyph-name="ic_userlevel_" unicode="&#59083;" d="M825.6 489.6h-73.6c-9.6 0-19.2-9.6-19.2-19.2v-172.8c0-9.6 9.6-19.2 19.2-19.2h73.6c9.6 0 19.2 9.6 19.2 19.2v172.8c-3.2 9.6-9.6 19.2-19.2 19.2z m108.8 115.2h-291.2c-16 0-25.6-12.8-25.6-25.6v-19.2H89.6c-16 0-25.6-12.8-25.6-25.6V192c0-16 12.8-25.6 25.6-25.6h841.6c16 0 25.6 12.8 25.6 25.6V579.2c3.2 12.8-9.6 25.6-22.4 25.6zM307.2 233.6c0-9.6-9.6-19.2-19.2-19.2H137.6c-9.6 0-19.2 9.6-19.2 19.2v252.8c0 9.6 9.6 19.2 19.2 19.2h25.6c9.6 0 19.2-9.6 19.2-19.2v-208h108.8c9.6 0 19.2-9.6 19.2-19.2v-25.6z m272 99.2v-6.4c0-6.4 0-12.8-3.2-16l-89.6-89.6c-6.4-6.4-22.4-6.4-22.4-6.4s-16 0-22.4 6.4L352 310.4c-6.4 3.2-6.4 12.8-3.2 19.2V486.4c0 9.6 9.6 19.2 19.2 19.2h25.6c9.6 0 19.2-9.6 19.2-19.2v-147.2l54.4-54.4 54.4 54.4v144c0 9.6 9.6 19.2 19.2 19.2h25.6c9.6 0 19.2-9.6 19.2-19.2v-150.4z m326.4-89.6c0-16-12.8-25.6-25.6-25.6h-182.4c-16 0-25.6 12.8-25.6 25.6v281.6c0 16 12.8 25.6 25.6 25.6h182.4c16 0 25.6-12.8 25.6-25.6v-281.6z"  horiz-adv-x="1024" />

    
    <glyph glyph-name="ic_userlevel_1" unicode="&#59084;" d="M934.4 604.8h-291.2c-16 0-25.6-12.8-25.6-25.6v-19.2H89.6c-16 0-25.6-12.8-25.6-25.6V192c0-16 12.8-25.6 25.6-25.6h841.6c16 0 25.6 12.8 25.6 25.6V579.2c3.2 12.8-9.6 25.6-22.4 25.6zM307.2 233.6c0-9.6-9.6-19.2-19.2-19.2H137.6c-9.6 0-19.2 9.6-19.2 19.2v252.8c0 9.6 9.6 19.2 19.2 19.2h25.6c9.6 0 19.2-9.6 19.2-19.2v-208h108.8c9.6 0 19.2-9.6 19.2-19.2v-25.6z m272 99.2v-6.4c0-6.4 0-12.8-3.2-16l-89.6-89.6c-6.4-6.4-22.4-6.4-22.4-6.4s-16 0-22.4 6.4L352 310.4c-6.4 3.2-6.4 12.8-3.2 19.2V486.4c0 9.6 9.6 19.2 19.2 19.2h25.6c9.6 0 19.2-9.6 19.2-19.2v-147.2l54.4-54.4 54.4 54.4v144c0 9.6 9.6 19.2 19.2 19.2h25.6c9.6 0 19.2-9.6 19.2-19.2v-150.4z m281.6-99.2c0-9.6-9.6-19.2-19.2-19.2h-118.4c-9.6 0-19.2 9.6-19.2 19.2v25.6c0 9.6 9.6 19.2 19.2 19.2h25.6V480h-19.2c-9.6 0-19.2 9.6-19.2 19.2v25.6c0 9.6 9.6 19.2 19.2 19.2h64c9.6 0 19.2-9.6 19.2-19.2v-243.2h25.6c9.6 0 19.2-9.6 19.2-19.2v-28.8z"  horiz-adv-x="1024" />

    
    <glyph glyph-name="ic_userlevel_2" unicode="&#59085;" d="M934.4 604.8h-291.2c-16 0-25.6-12.8-25.6-25.6v-19.2H89.6c-16 0-25.6-12.8-25.6-25.6V192c0-16 12.8-25.6 25.6-25.6h841.6c16 0 25.6 12.8 25.6 25.6V579.2c3.2 12.8-9.6 25.6-22.4 25.6zM307.2 233.6c0-9.6-9.6-19.2-19.2-19.2H137.6c-9.6 0-19.2 9.6-19.2 19.2v252.8c0 9.6 9.6 19.2 19.2 19.2h25.6c9.6 0 19.2-9.6 19.2-19.2v-208h108.8c9.6 0 19.2-9.6 19.2-19.2v-25.6z m272 99.2v-6.4c0-6.4 0-12.8-3.2-16l-89.6-89.6c-6.4-6.4-22.4-6.4-22.4-6.4s-16 0-22.4 6.4L352 310.4c-6.4 3.2-6.4 12.8-3.2 19.2V486.4c0 9.6 9.6 19.2 19.2 19.2h25.6c9.6 0 19.2-9.6 19.2-19.2v-147.2l54.4-54.4 54.4 54.4v144c0 9.6 9.6 19.2 19.2 19.2h25.6c9.6 0 19.2-9.6 19.2-19.2v-150.4z m326.4 38.4c0-9.6-9.6-19.2-19.2-19.2h-153.6v-73.6h153.6c9.6 0 19.2-9.6 19.2-19.2v-25.6c0-9.6-9.6-19.2-19.2-19.2h-198.4c-9.6 0-19.2 9.6-19.2 19.2v163.2c0 9.6 9.6 19.2 19.2 19.2h153.6v73.6h-153.6c-9.6 0-19.2 9.6-19.2 19.2v25.6c0 9.6 9.6 19.2 19.2 19.2h198.4c9.6 0 19.2-9.6 19.2-19.2v-163.2z"  horiz-adv-x="1024" />

    
    <glyph glyph-name="ic_userlevel_3" unicode="&#59086;" d="M934.4 604.8h-291.2c-16 0-25.6-12.8-25.6-25.6v-19.2H89.6c-16 0-25.6-12.8-25.6-25.6V192c0-16 12.8-25.6 25.6-25.6h841.6c16 0 25.6 12.8 25.6 25.6V579.2c3.2 12.8-9.6 25.6-22.4 25.6zM307.2 233.6c0-9.6-9.6-19.2-19.2-19.2H137.6c-9.6 0-19.2 9.6-19.2 19.2v252.8c0 9.6 9.6 19.2 19.2 19.2h25.6c9.6 0 19.2-9.6 19.2-19.2v-208h108.8c9.6 0 19.2-9.6 19.2-19.2v-25.6z m272 99.2v-6.4c0-6.4 0-12.8-3.2-16l-89.6-89.6c-6.4-6.4-22.4-6.4-22.4-6.4s-16 0-22.4 6.4L352 310.4c-6.4 3.2-6.4 12.8-3.2 19.2V486.4c0 9.6 9.6 19.2 19.2 19.2h25.6c9.6 0 19.2-9.6 19.2-19.2v-147.2l54.4-54.4 54.4 54.4v144c0 9.6 9.6 19.2 19.2 19.2h25.6c9.6 0 19.2-9.6 19.2-19.2v-150.4z m326.4-99.2c0-9.6-9.6-19.2-19.2-19.2h-198.4c-9.6 0-19.2 9.6-19.2 19.2v25.6c0 9.6 9.6 19.2 19.2 19.2h153.6V352h-153.6c-9.6 0-19.2 9.6-19.2 19.2v25.6c0 9.6 9.6 19.2 19.2 19.2h153.6v73.6h-153.6c-9.6 0-19.2 9.6-19.2 19.2v25.6c0 9.6 9.6 19.2 19.2 19.2h198.4c9.6 0 19.2-9.6 19.2-19.2v-300.8z"  horiz-adv-x="1024" />

    
    <glyph glyph-name="ic_userlevel_4" unicode="&#59087;" d="M934.4 604.8h-291.2c-16 0-25.6-12.8-25.6-25.6v-19.2H89.6c-16 0-25.6-12.8-25.6-25.6V192c0-16 12.8-25.6 25.6-25.6h841.6c16 0 25.6 12.8 25.6 25.6V579.2c3.2 12.8-9.6 25.6-22.4 25.6zM307.2 233.6c0-9.6-9.6-19.2-19.2-19.2H137.6c-9.6 0-19.2 9.6-19.2 19.2v252.8c0 9.6 9.6 19.2 19.2 19.2h25.6c9.6 0 19.2-9.6 19.2-19.2v-208h108.8c9.6 0 19.2-9.6 19.2-19.2v-25.6z m272 99.2v-6.4c0-6.4 0-12.8-3.2-16l-89.6-89.6c-6.4-6.4-22.4-6.4-22.4-6.4s-16 0-22.4 6.4L352 310.4c-6.4 3.2-6.4 12.8-3.2 19.2V486.4c0 9.6 9.6 19.2 19.2 19.2h25.6c9.6 0 19.2-9.6 19.2-19.2v-147.2l54.4-54.4 54.4 54.4v144c0 9.6 9.6 19.2 19.2 19.2h25.6c9.6 0 19.2-9.6 19.2-19.2v-150.4z m326.4-99.2c0-9.6-9.6-19.2-19.2-19.2h-25.6c-9.6 0-19.2 9.6-19.2 19.2V352h-153.6c-9.6 0-19.2 9.6-19.2 19.2v163.2c0 9.6 9.6 19.2 19.2 19.2h25.6c9.6 0 19.2-9.6 19.2-19.2V416h108.8v118.4c0 9.6 9.6 19.2 19.2 19.2h25.6c9.6 0 19.2-9.6 19.2-19.2v-300.8z"  horiz-adv-x="1024" />

    
    <glyph glyph-name="ic_userlevel_5" unicode="&#59088;" d="M934.4 604.8h-291.2c-16 0-25.6-12.8-25.6-25.6v-19.2H89.6c-16 0-25.6-12.8-25.6-25.6V192c0-16 12.8-25.6 25.6-25.6h841.6c16 0 25.6 12.8 25.6 25.6V579.2c3.2 12.8-9.6 25.6-22.4 25.6zM307.2 233.6c0-9.6-9.6-19.2-19.2-19.2H137.6c-9.6 0-19.2 9.6-19.2 19.2v252.8c0 9.6 9.6 19.2 19.2 19.2h25.6c9.6 0 19.2-9.6 19.2-19.2v-208h108.8c9.6 0 19.2-9.6 19.2-19.2v-25.6z m272 99.2v-6.4c0-6.4 0-12.8-3.2-16l-89.6-89.6c-6.4-6.4-22.4-6.4-22.4-6.4s-16 0-22.4 6.4L352 310.4c-6.4 3.2-6.4 12.8-3.2 19.2V486.4c0 9.6 9.6 19.2 19.2 19.2h25.6c9.6 0 19.2-9.6 19.2-19.2v-147.2l54.4-54.4 54.4 54.4v144c0 9.6 9.6 19.2 19.2 19.2h25.6c9.6 0 19.2-9.6 19.2-19.2v-150.4z m326.4 172.8c0-9.6-9.6-19.2-19.2-19.2h-153.6V416h153.6c9.6 0 19.2-9.6 19.2-19.2v-163.2c0-9.6-9.6-19.2-19.2-19.2h-198.4c-9.6 0-19.2 9.6-19.2 19.2v25.6c0 9.6 9.6 19.2 19.2 19.2h153.6V352h-153.6c-9.6 0-19.2 9.6-19.2 19.2v163.2c0 9.6 9.6 19.2 19.2 19.2h198.4c9.6 0 19.2-9.6 19.2-19.2v-28.8z"  horiz-adv-x="1024" />

    
    <glyph glyph-name="ic_userlevel_6" unicode="&#59089;" d="M732.8 278.4h108.8V352h-108.8v-73.6z m201.6 326.4h-291.2c-16 0-25.6-12.8-25.6-25.6v-19.2H89.6c-16 0-25.6-12.8-25.6-25.6V192c0-16 12.8-25.6 25.6-25.6h841.6c16 0 25.6 12.8 25.6 25.6V579.2c3.2 12.8-9.6 25.6-22.4 25.6zM307.2 233.6c0-9.6-9.6-19.2-19.2-19.2H137.6c-9.6 0-19.2 9.6-19.2 19.2v252.8c0 9.6 9.6 19.2 19.2 19.2h25.6c9.6 0 19.2-9.6 19.2-19.2v-208h108.8c9.6 0 19.2-9.6 19.2-19.2v-25.6z m272 99.2v-6.4c0-6.4 0-12.8-3.2-16l-89.6-89.6c-6.4-6.4-22.4-6.4-22.4-6.4s-16 0-22.4 6.4L352 310.4c-6.4 3.2-6.4 12.8-3.2 19.2V486.4c0 9.6 9.6 19.2 19.2 19.2h25.6c9.6 0 19.2-9.6 19.2-19.2v-147.2l54.4-54.4 54.4 54.4v144c0 9.6 9.6 19.2 19.2 19.2h25.6c9.6 0 19.2-9.6 19.2-19.2v-150.4z m326.4 172.8c0-9.6-9.6-19.2-19.2-19.2h-153.6V416h153.6c9.6 0 19.2-9.6 19.2-19.2v-163.2c0-9.6-9.6-19.2-19.2-19.2h-198.4c-9.6 0-19.2 9.6-19.2 19.2v297.6c0 9.6 9.6 19.2 19.2 19.2h198.4c9.6 0 19.2-9.6 19.2-19.2v-25.6z"  horiz-adv-x="1024" />

    
    <glyph glyph-name="dianshiju-" unicode="&#59092;" d="M762.8 824.9c-16 11.6-38.6 8.1-50.3-7.9L504.2 530.5 295.8 817c-11.6 16-34.3 19.6-50.3 7.9-16-11.6-19.6-34.3-7.9-50.3L461 467.5c-4.2-14.2 0.6-30.1 13.2-39.3 9-6.5 19.9-8.1 30-5.6 10-2.5 21-0.9 30 5.6 12.6 9.2 17.4 25.1 13.2 39.3l223.4 307.2c11.6 16 8 38.6-8 50.2zM861.7 713.9H162.3c-33.8 0-61.1-27.4-61.1-61.1v-655.4c0-33.8 27.4-61.1 61.1-61.1h699.5c33.8 0 61.1 27.4 61.1 61.1V652.8c0 33.8-27.4 61.1-61.2 61.1zM781.1 32.8H242.9c-21.5 0-39 17.5-39 39v399c0 21.5 17.5 39 39 39h538.3c21.5 0 39-17.5 39-39v-398.9c0-21.6-17.5-39.1-39.1-39.1zM398.9 415.7H297c-5.2 0-9.4-4.2-9.4-9.4v-101.9c0-5.2 4.2-9.4 9.4-9.4h102c5.2 0 9.4 4.2 9.4 9.4V406.3c-0.1 5.2-4.3 9.4-9.5 9.4zM563 415.7H461c-5.2 0-9.4-4.2-9.4-9.4v-101.9c0-5.2 4.2-9.4 9.4-9.4h102c5.2 0 9.4 4.2 9.4 9.4V406.3c0 5.2-4.2 9.4-9.4 9.4zM727.1 415.7h-102c-5.2 0-9.3-4.2-9.3-9.3v-102c0-5.2 4.2-9.4 9.4-9.4h102c5.2 0 9.3 4.2 9.3 9.3v102c-0.1 5.2-4.3 9.4-9.4 9.4zM398.9 230.2h-102c-5.2 0-9.3-4.2-9.3-9.3v-102c0-5.2 4.2-9.4 9.4-9.4h102c5.2 0 9.3 4.2 9.3 9.3v102c0 5.2-4.2 9.4-9.4 9.4zM563 230.2H461c-5.2 0-9.4-4.2-9.4-9.4v-101.9c0-5.2 4.2-9.4 9.4-9.4h102c5.2 0 9.4 4.2 9.4 9.4V220.8c0 5.2-4.2 9.4-9.4 9.4zM625.1 109.5h102c5.2 0 9.4 4.2 9.4 9.4V220.8c0 5.2-4.2 9.4-9.4 9.4h-102c-5.2 0-9.4-4.2-9.4-9.4v-101.9c0-5.2 4.2-9.4 9.4-9.4z"  horiz-adv-x="1024" />

    
    <glyph glyph-name="bianjituijian" unicode="&#59093;" d="M839.4 18.5c0-33.7-28.9-61.1-64.7-61.1h-646c-35.8 0-64.7 27.4-64.7 61.1 0 122.1 124.9 236.3 252.5 281.2-73.7 43.1-123.3 119.6-123.3 207.5v61.1c0 135 115.8 244.5 258.5 244.5s258.5-109.5 258.5-244.5v-61.1c0-87.9-49.6-164.4-123.3-207.5 127.6-45 252.5-159.1 252.5-281.2zM904 195.2h-82.6l8 18.6c16 34.6 15.6 63.7 2.7 85.2-13.8 23-39 26.6-52.4 25.8-5.2-0.3-9.7-3.3-12.4-7.8l-71.4-122h-65.7c-10.4 0-18.8-8.4-18.8-18.8v-202.1c0-10.4 8.4-18.8 18.8-18.8h70.5v0.3c0.3 0 0.5-0.2 0.8-0.2H880c26.6 0 50.6 18.6 53.3 45.3l26.6 141.2c0 29.3-23.9 53.3-55.9 53.3zM661.4-12.2c-11.1 0-20.1 9-20.1 20.1V142.3c0 11.1 9 20.1 20.1 20.1 11.1 0 20.1-9 20.1-20.1v-134.5c0-11-9-20-20.1-20z"  horiz-adv-x="1024" />

    
    <glyph glyph-name="dianshiju" unicode="&#59094;" d="M253.2 688.1c-46.2-53.3-66.4-123.8-55.5-193.8l27.4-141.9c63.1-24.4 66.9-98.2 75-167.3 47.4 10.4 146.9 15.6 211.8 15.6 65 0 171-5.3 218.4-15.6 8.5 68.9 4.8 142 66.7 166.6L826.2 495c10.8 69.4-9.5 139.9-55.5 193.2-46.1 53.3-113.1 83.9-183.9 83.9H437.1c-70.7 0-137.8-30.6-183.9-84zM513.3 503.3l-38.8 38.8c-8.4 8.4-22.2 8.4-30.6 0-8.5-8.5-8.5-22.2 0-30.6l28-27.9-28-28c-8.5-8.4-8.5-22.2 0-30.6 4.2-4.2 9.8-6.3 15.3-6.3s11.1 2.1 15.3 6.3l38.8 38.8 38.8-38.8c4.2-4.2 9.8-6.3 15.3-6.3s11.1 2.1 15.3 6.3c8.5 8.4 8.5 22.2 0 30.6l-28 28 28 27.9c8.5 8.4 8.5 22.2 0 30.6-4.2 4.2-9.8 6.3-15.3 6.3s-11.1-2.1-15.3-6.3l-38.8-38.8zM866.1 425C783.9 425 717 360.9 717 282.1v-77.2l-410-1.8v77.2c0 75.5-58.8 136.6-133.9 143.9l-15.2 0.8c-51.4 0-93.2-40.1-93.2-89.3 0-5 0.5-10 1.4-14.8 4.4-25.6 20.2-48.1 43.5-61.6l9.7-4.8 2.7-1.3c10.9-5.2 17.2-14.3 17.2-24.6v-71.4c0-54.9 37.2-101.5 88.6-118.2 5-24.5 28.2-42.9 56-42.9 25.2 0 46.4 15.2 53.9 36.2h348.8c7.6-21 28.7-36.2 53.9-36.2 27.9 0 51 18.6 56 43.1 51.3 16.8 88.3 63.4 88.3 118.1v71.4l1.2 7.9c1.7 5.1 4.7 9.5 8.9 12.8l1.7 1 5.3 3c30.5 12.2 51.6 38.5 56.4 69.1l1 13.3c0.1 49-41.7 89.2-93.1 89.2z"  horiz-adv-x="1024" />

    
    <glyph glyph-name="dong" unicode="&#59095;" d="M890.1 208.7l-93.2 53.4 88.2 23.9c19.2 5.2 30.5 24.9 25.3 44.1-5.2 19.2-24.9 30.5-44.1 25.3l-157.6-42.7-124.6 71.5L708.5 456l157.7-42.2c3.1-0.8 6.2-1.2 9.3-1.2 15.9 0 30.4 10.6 34.7 26.6 5.1 19.2-6.2 38.9-25.4 44l-88.3 23.6 87.8 50.7c17.2 9.9 23.1 31.9 13.1 49.1-9.9 17.2-31.9 23.1-49.1 13.1L760.5 569l23.6 88.3c5.1 19.2-6.2 38.9-25.4 44-19.2 5.1-38.9-6.2-44-25.4l-42.2-157.7-124.6-72v147l115.5 115.5c14 14 14 36.8 0 50.8s-36.8 14-50.8 0L548 694.9V796.2c0 19.8-16.1 35.9-35.9 35.9-19.8 0-35.9-16.1-35.9-35.9v-101.4l-64.6 64.6c-14 14-36.8 14-50.8 0s-14-36.8 0-50.8l115.5-115.5V446l-125 71.7-42.7 157.6c-5.2 19.2-24.9 30.5-44.1 25.3-19.2-5.2-30.5-24.9-25.3-44.1l23.9-88.2-88 50.4c-17.2 9.9-39.2 3.9-49.1-13.3-9.9-17.2-3.9-39.2 13.3-49.1l88-50.4-88.4-23.9c-19.2-5.2-30.5-24.9-25.3-44.1 4.3-16 18.8-26.5 34.7-26.5 3.1 0 6.3 0.4 9.4 1.3l157.6 42.7 124.6-71.5L315.5 312l-157.7 42.2c-19.2 5.1-38.9-6.2-44-25.4-5.1-19.2 6.2-38.9 25.4-44l88.3-23.6-93-53.7c-17.2-9.9-23.1-31.9-13.1-49.1 6.7-11.5 18.7-18 31.2-18 6.1 0 12.3 1.6 17.9 4.8l93 53.7-23.6-88.3c-5.1-19.2 6.2-38.9 25.4-44 3.1-0.8 6.2-1.2 9.3-1.2 15.9 0 30.4 10.6 34.7 26.7l42.2 157.7 124.6 72V181L360.6 65.4c-14-14-14-36.8 0-50.8 7-7 16.2-10.5 25.4-10.5s18.4 3.5 25.4 10.5l64.6 64.6v-107.5c0-19.8 16.1-35.9 35.9-35.9 19.8 0 35.9 16.1 35.9 35.9V79.3l64.6-64.6c14-14 36.8-14 50.8 0s14 36.8 0 50.8L547.9 180.9V322l125-71.7 42.7-157.6c4.3-16 18.8-26.5 34.7-26.5 3.1 0 6.3 0.4 9.4 1.3 19.2 5.2 30.5 24.9 25.3 44.1l-23.9 88.2 93.2-53.4c5.6-3.2 11.8-4.8 17.8-4.8 12.5 0 24.6 6.5 31.2 18.1 10 17.1 4 39.1-13.2 49zM512 384m-146.6 0a146.6 146.6 0 1 1 293.2 0 146.6 146.6 0 1 1-293.2 0Z"  horiz-adv-x="1024" />

    
    <glyph glyph-name="dianying" unicode="&#59096;" d="M944.4 447.1h-35.5V614.5c0 16.5-10.4 31.9-26.4 36.2-24.1 6.5-46-11.8-46-34.9v-168.7h-649V614.5c0 16.5-10.4 31.9-26.4 36.2-24.1 6.5-46-11.8-46-34.9v-168.7H79.6c-8.5 0-15.5-7-15.5-15.5v-81c0-8.5 7-15.5 15.5-15.5h26.8v-84.2c0-74.2 60.7-134.9 134.9-134.9h114.6c74.2 0 134.9 60.7 134.9 134.9v20.7c0 4.3 3.5 7.7 7.7 7.7h26.9c4.3 0 7.7-3.5 7.7-7.7v-20.7c0-74.2 60.7-134.9 134.9-134.9h114.6c74.2 0 134.9 60.7 134.9 134.9v84.2h26.8c8.5 0 15.5 7 15.5 15.5v81c0.1 8.6-6.9 15.5-15.4 15.5zM349.4 175.1H247c-47.7 0-86.8 39-86.8 86.8V341c0 33.4 27.3 60.7 60.7 60.7h154.4c33.4 0 60.7-27.3 60.7-60.7v-79.2c0.1-47.7-38.9-86.7-86.6-86.7zM674.6 175.1H777c47.7 0 86.8 39 86.8 86.8V341c0 33.4-27.3 60.7-60.7 60.7H648.6c-33.4 0-60.7-27.3-60.7-60.7v-79.2c0-47.7 39-86.7 86.7-86.7z"  horiz-adv-x="1024" />

    
    <glyph glyph-name="guanggao" unicode="&#59097;" d="M584.3 805.8c36.4 36.4 147-15.3 247.1-115.5s151.8-210.8 115.5-247.1c-2-2-4.3-3.8-6.8-5.3-41.9-25.1-713.9-420.5-713.9-420.5s-25 5.6-54 34.6c-31.2 31.2-38.4 54.6-38.4 54.6S558.1 761.9 578.5 798.1c1.6 2.8 3.5 5.4 5.8 7.7zM133.7 106.6l0.6 0.9c-5.7-3.8-39.6-22.3-57.8-32.3-7.8-4.3-12.1-12.8-10.8-21.6 2.2-15.3 10-39.9 35.1-65 25.7-25.7 50.9-34.6 66.2-37.6 8.6-1.7 17.3 1.9 22 9.4 12 19 35.8 56.3 37.1 57 0 0-25 5.6-54 34.6-31.2 31.2-38.4 54.6-38.4 54.6zM584.3 805.8c36.4 36.4 147-15.3 247.1-115.5s151.8-210.8 115.5-247.1c-2-2-4.3-3.8-6.8-5.3-41.9-25.1-113.4-66.9-113.4-66.9s-71.2 4.7-193 126.6C519 612.2 508.9 688.1 508.9 688.1s44.6 68.7 69.6 110c1.7 2.8 3.5 5.4 5.8 7.7zM699.719728 558.681385a93.1 256.4 45.001 1 1 131.660985 131.66558 93.1 256.4 45.001 1 1-131.660985-131.66558Z"  horiz-adv-x="1024" />

    
    <glyph glyph-name="chun" unicode="&#59098;" d="M408.7 409.2c5 15.5-3.4 32.2-19 37.2-15.5 5-32.2-3.5-37.2-19s3.5-32.2 19-37.2 32.1 3.5 37.2 19zM448 288.1c-13.2 9.6-31.7 6.7-41.2-6.5-9.6-13.2-6.7-31.7 6.5-41.2 13.2-9.6 31.7-6.7 41.2 6.5 9.6 13.2 6.7 31.6-6.5 41.2zM511.7 484c16.3 0 29.5 13.2 29.5 29.5S528 543 511.7 543s-29.5-13.2-29.5-29.5c-0.1-16.3 13.1-29.5 29.5-29.5z m63.6-195.9c-13.2-9.6-16.1-28.1-6.5-41.2 9.6-13.2 28.1-16.1 41.3-6.5 13.2 9.6 16.1 28.1 6.5 41.2-9.6 13.2-28.1 16.1-41.3 6.5z m-35.6 96.8c-3.8 11.8-15 20.4-28.1 20.4-13.1 0-24.3-8.6-28.1-20.4-0.9-2.9-1.4-5.9-1.4-9.1 0-16.3 13.2-29.5 29.5-29.5s29.5 13.2 29.5 29.5c0.1 3.1-0.4 6.2-1.4 9.1z m74.9 24.3c5-15.5 21.7-24 37.2-19 15.5 5 24 21.7 19 37.2-5 15.5-21.7 24-37.2 19-15.5-5-24-21.7-19-37.2z m344.5 4.3c8.3-78.6-70.3-120.9-161.1-130.8 67.7-61.3 106.3-141.8 53.4-200.5-24.8-27.6-57.7-43.6-91.8-47.7-14.5-31.2-39.9-57.5-73.8-72.6-72.2-32.2-136.7 29.5-174.2 112.8-37.4-83.3-102-144.9-174.2-112.8-33.9 15.1-59.3 41.4-73.8 72.6-34.2 4.2-67 20.2-91.8 47.7-52.9 58.7-14.2 139.2 53.4 200.5-90.7 9.9-169.2 52.2-161 130.8 3.9 36.9 21 69.2 46.2 92.6-6.6 33.8-1.5 70 17 102.1 39.5 68.4 128 56.5 207.2 11.1C316 708.7 332 796.5 409.3 812.9c36.3 7.7 72.3 1.3 102.4-15.4 30.1 16.7 66.1 23.1 102.3 15.4 77.3-16.4 93.3-104.2 74.6-193.6 79.2 45.4 167.7 57.3 207.2-11.1 18.6-32.1 23.6-68.3 17-102.1 25.2-23.4 42.4-55.7 46.3-92.6z m0 0M633.2 399.7l-9.1 28.1-97.7-31.8V498.8h-29.5v-102.7l-97.7 31.8-9.1-28.1 97.7-31.7-60.4-83.1 23.9-17.4 60.4 83.1 60.4-83.1L596 285l-60.5 83 97.7 31.7z m0 0M541.2 375.7c0-16.3-13.2-29.5-29.5-29.5s-29.5 13.2-29.5 29.5 13.2 29.5 29.5 29.5c16.3 0.1 29.5-13.2 29.5-29.5z m0 0M482.2 513.6a29.5 29.5 0 1 1 59 0 29.5 29.5 0 1 1-59 0ZM380.6 418.3m-29.5 0a29.5 29.5 0 1 1 59 0 29.5 29.5 0 1 1-59 0ZM430.6 293.8c-16.3 0-29.5-13.2-29.5-29.5s13.2-29.5 29.5-29.5 29.5 13.2 29.5 29.5c0.1 16.2-13.1 29.5-29.5 29.5zM592.7 293.8c-16.3 0-29.5-13.2-29.5-29.5s13.2-29.5 29.5-29.5 29.5 13.2 29.5 29.5c0 16.2-13.2 29.5-29.5 29.5zM613.2 418.3a29.5 29.5 0 1 1 59 0 29.5 29.5 0 1 1-59 0Z"  horiz-adv-x="1024" />

    
    <glyph glyph-name="guixu" unicode="&#59099;" d="M958.2 384.5c0 74.1-39 138.8-97.5 175.4 1.2 7.9 1.9 15.9 1.9 24.1 0 91.6-74.3 165.9-165.9 165.9-23.5 0-45.8-4.9-66-13.7-30.1 30.9-72.2 50.2-118.7 50.2s-88.6-19.3-118.7-50.2c-20.2 8.8-42.5 13.7-66 13.7-91.6 0-165.9-74.3-165.9-165.9 0-8.2 0.8-16.2 1.9-24.1-58.5-36.5-97.5-101.3-97.5-175.4 0-67.4 32.4-127.1 82.2-164.8 0-0.5-0.1-1-0.1-1.6 0-130.6 105.9-236.5 236.5-236.5 47.4 0 91.5 14.1 128.5 38.1 37-24 81.1-38.1 128.5-38.1 130.6 0 236.5 105.9 236.5 236.5 0 1-0.1 1.9-0.1 2.9 48.8 37.8 80.4 96.9 80.4 163.5zM696.7 418.1c-46.6 0-88.6 19.3-118.7 50.2-20.2-8.8-42.5-13.7-66-13.7s-45.8 4.9-66 13.7c-30.1-30.9-72.2-50.2-118.7-50.2-4.1 0-8.2 0.3-12.2 0.6v-183.9c0-100.2 82-182.2 182.2-182.2H534c100.2 0 182.2 82 182.2 182.2V419.4c-6.4-0.8-12.8-1.3-19.5-1.3zM509.5 229.5m-36.9 0a36.9 36.9 0 1 1 73.8 0 36.9 36.9 0 1 1-73.8 0ZM647.4 336H624v23.4c0 7.1-5.8 12.9-12.9 12.9h-5.4c-7.1 0-12.9-5.8-12.9-12.9V336h-23.4c-7.1 0-12.9-5.8-12.9-12.9v-5.4c0-7.1 5.8-12.9 12.9-12.9h23.4v-23.4c0-7.1 5.8-12.9 12.9-12.9h5.4c7.1 0 12.9 5.8 12.9 12.9v23.4h23.4c7.1 0 12.9 5.8 12.9 12.9v5.4c0.1 7.1-5.8 12.9-12.9 12.9zM449.7 336h-23.4v23.4c0 7.1-5.8 12.9-12.9 12.9H408c-7.1 0-12.9-5.8-12.9-12.9V336h-23.4c-7.1 0-12.9-5.8-12.9-12.9v-5.4c0-7.1 5.8-12.9 12.9-12.9h23.4v-23.4c0-7.1 5.8-12.9 12.9-12.9h5.4c7.1 0 12.9 5.8 12.9 12.9v23.4h23.4c7.1 0 12.9 5.8 12.9 12.9v5.4c0 7.1-5.8 12.9-12.9 12.9zM608.3 229.9c-7.5 0-13.7-6.1-13.7-13.7 0-37.5-38.2-67.9-85.1-67.9-46.9 0-85.1 30.5-85.1 67.9 0 7.5-6.1 13.7-13.7 13.7s-13.7-6.1-13.7-13.7c0-52.5 50.5-95.3 112.5-95.3S622 163.6 622 216.2c0 7.6-6.1 13.7-13.7 13.7z"  horiz-adv-x="1024" />

    
    <glyph glyph-name="fanjutuijian" unicode="&#59100;" d="M640.8 579.5c-0.9-1.2-0.9-3.1 0-4.2l90-123c0.9-1.2 0.4-2-1.1-1.8L578.2 467c-1.4 0.2-3.1-0.8-3.7-2.1L513 325.4c-0.6-1.3-1.5-1.3-2.1 0l-61.5 139.5c-0.6 1.3-2.2 2.3-3.7 2.1l-151.5-16.5c-1.4-0.2-1.9 0.7-1.1 1.8l90 123c0.9 1.2 0.9 3.1 0 4.2l-90 123c-0.9 1.2-0.4 2 1.1 1.8l151.5-16.5c1.4-0.2 3.1 0.8 3.7 2.1l61.5 139.5c0.6 1.3 1.5 1.3 2.1 0l61.5-139.5c0.6-1.3 2.2-2.3 3.7-2.1l151.5 16.5c1.4 0.2 1.9-0.7 1.1-1.8l-90-123zM512 311m-374.8 0a374.8 374.8 0 1 1 749.6 0 374.8 374.8 0 1 1-749.6 0ZM659.2 390.1h-87.8l8.5 19.8c17 36.8 16.6 67.7 2.8 90.6-14.7 24.5-41.4 28.3-55.7 27.4-5.5-0.3-10.4-3.5-13.1-8.3L438 389.9h-69.8c-11.1 0-20-9-20-20v-214.7c0-11.1 9-20 20-20h74.9v0.4c0.3 0 0.6-0.2 0.9-0.2h189.7c28.3 0 53.8 19.8 56.6 48.1l28.3 150c0 31.1-25.5 56.6-59.4 56.6zM401.4 169.7c-11.7 0-21.4 9.6-21.4 21.4V333.9c0 11.7 9.6 21.4 21.4 21.4 11.7 0 21.4-9.6 21.4-21.4V191c-0.1-11.7-9.7-21.3-21.4-21.3z"  horiz-adv-x="1024" />

    
    <glyph glyph-name="guochandonghuatuijian" unicode="&#59101;" d="M893.3 588.1c-47.2 47.2-108.3 77.7-170.1 42.1 9 49 2.2 110-54.2 167.6 0 0-88.3-112.1-15.9-228.8-13-13.8-25.6-27.8-38.5-40.7-28.1-28.1 15.5-71.8 43.7-43.7 24.1 24.1 47.6 48.9 72.3 72.3 43.1 40.8 80.8 25.6 119-12.6 28.1-28 71.8 15.7 43.7 43.8zM715.7 564.2c-78.9 78.9-206.8 78.9-285.7 0-19.2-19.2-33.6-41.3-43.5-64.9-67.8 0.1-135.6-25.8-187.3-77.5-103.4-103.3-103.4-270.8 0-374.2 103.3-103.3 270.9-103.3 374.2 0 51.7 51.7 77.5 119.5 77.5 187.3 23.6 9.9 45.7 24.3 64.9 43.5 78.8 79 78.8 206.9-0.1 285.8zM514.6 81.4c-79.3-76.4-205.6-74.1-282 5.3s-74.1 205.6 5.3 282c0 0-47.4-125.6 46.3-222.9 106.2-110.3 230.4-64.4 230.4-64.4z m0 0"  horiz-adv-x="1024" />

    
    <glyph glyph-name="shenghuo" unicode="&#59102;" d="M933.4 194.9V386.3c0 93.8-65.3 173.1-152.7 194.7-3.1 0.8-9.4 2.1-9.4 2.1l0.3-173.4c0-9.2-8.4-15.7-17.5-14.1-11.9 2.1-24 3.3-36.5 3.3H550.1V432c0 12.4 4.9 24.6 14.1 32.9 44 39.9 71.2 98.1 69.2 162.6-3.3 110-95.1 201.5-205 204.5-119.4 3.3-217.1-92.4-217.1-211 0-3 0.4-6 0.5-9h-0.5v-112.5h38.8c5.8-8.1 12.1-15.9 18.9-23.2 7.6-8.1 11.4-19.1 11.4-30.2V395C162.7 373.8 75.2 263 92.1 136.3c15.5-115.9 119.1-199.9 236-199.9h389.5c18.9 0 37.4 1.9 54.7 7.3 20.5 6.5 55.3 20.5 77 37.9 7.6 5.9 14.9 12.1 21.6 18.9 1.8 1.7 3.8 3.4 5.6 5.1 36.2 35.4 56.8 83.7 56.8 134.3v0.4c0.2 4.2 0.6 8.3 0.6 12.5v29.5c0.1 4.3-0.3 8.4-0.5 12.6zM440.1 644.5m-46.3 0a46.3 46.3 0 1 1 92.6 0 46.3 46.3 0 1 1-92.6 0ZM272.6 547.5l-122.6 0.3c-22 0-40.1-18-40.1-40s18-40.1 40-40.1l122.5-0.3c22 0 40.1 18 40.1 40 0.1 22-17.9 40-39.9 40.1z"  horiz-adv-x="1024" />

    
    <glyph glyph-name="shishang" unicode="&#59103;" d="M709.6 734.2c16.2-5.5 29.6-18.9 33-37.6 0-0.3 0.1-0.5 0.1-0.8 5.4-31.4-0.6-61.2-14.4-85.9h0.1s-21-33.2-26.7-44.3c-18.7-36.5-27.9-77.2-27.9-118.2v-44.8H350.2v44.8c0 41-9.2 81.7-27.9 118.2-5.7 11.1-26.7 44.3-26.7 44.3h0.1c-13.8 24.8-19.8 54.5-14.4 85.9 0 0.3 0.1 0.5 0.1 0.8 3.7 20.6 19.6 34.8 38.1 39l0.2 61.2c0 19.2 13.4 34.9 29.7 34.9 16.3 0 29.7-15.7 29.7-34.9l-0.2-81.6c39.2-22.7 84.6-35.7 133.1-35.7 50.6 0 97.9 14.2 138.2 38.7l0.3 78.7c0 19.2 13.4 34.9 29.7 34.9 16.4 0 29.7-15.7 29.7-34.9l-0.3-62.7zM673.8 420.9H350.2L172 97.8c-9.7-17.5-4.9-39.5 11.1-51.5 91.4-69.1 205.1-110.1 328.3-110.1 123.8 0 238 41.3 329.6 111 15.9 12.1 20.7 34 11 51.5L673.8 420.9zM400.1 367.2c-5.5 2.7-12.2 0.5-14.9-5l-137.1-277c-2.7-5.5-0.5-12.2 5-14.9 1.6-0.8 3.3-1.2 4.9-1.2 4.1 0 8 2.3 10 6.2l137.1 277c2.8 5.5 0.5 12.2-5 14.9zM450.2 249.6c-5.9 1.4-12-2.3-13.4-8.3l-44.6-188.7c-1.4-6 2.3-12 8.3-13.4 0.9-0.2 1.7-0.3 2.6-0.3 5 0 9.6 3.4 10.8 8.6l44.6 188.7c1.4 5.9-2.3 11.9-8.3 13.4zM775.9 85.2l-137.1 277c-2.7 5.5-9.4 7.8-14.9 5-5.5-2.7-7.8-9.4-5-14.9l137.1-277c1.9-3.9 5.9-6.2 10-6.2 1.7 0 3.3 0.4 4.9 1.2 5.5 2.7 7.7 9.4 5 14.9zM587.2 241.3c-1.4 6-7.4 9.7-13.4 8.3-6-1.4-9.7-7.4-8.3-13.4l44.6-188.7c1.2-5.1 5.8-8.6 10.8-8.6 0.8 0 1.7 0.1 2.6 0.3 6 1.4 9.7 7.4 8.3 13.4l-44.6 188.7z"  horiz-adv-x="1024" />

    
    <glyph glyph-name="suoyin" unicode="&#59104;" d="M679.6 406.9H344.3l-41.9-427c-2.1-23.4 16.4-43.7 39.9-43.7h339.3c23.5 0 42 20.2 39.9 43.7l-41.9 427zM679.6 664.2c0 10.6-4.2 20.8-11.7 28.3L540.3 820c-15.6 15.6-41 15.6-56.7 0L356.1 692.5c-7.5-7.5-11.7-17.7-11.7-28.3v-29.3h335.2v29.3zM344.3 498.7h335.2v-91.8H344.3zM344.3 634.8h335.2v-156.1H344.3zM537.8 166.8H486c-11.1 0-20-9-20-20v-57.6c0-11.1 9-20 20-20h51.8c11.1 0 20 9 20 20v57.6c0.1 11-8.9 20-20 20zM537.8 338H486c-11.1 0-20-9-20-20v-57.6c0-11.1 9-20 20-20h51.8c11.1 0 20 9 20 20V318c0.1 11-8.9 20-20 20zM913.8 689.6l-234.3-55v-155.8l234.3-55c12.6-3 24.6 6.6 24.6 19.5V670.1c0 12.9-12 22.4-24.6 19.5zM85.6 670.7v-226.9c0-12.9 12-22.5 24.6-19.5l234.3 55V635.1l-234.3 55c-12.6 3-24.6-6.5-24.6-19.4z"  horiz-adv-x="1024" />

    
    <glyph glyph-name="shijianbiao" unicode="&#59105;" d="M762.8 824.9c-16 11.6-38.6 8.1-50.3-7.9L504.2 530.5 295.8 817c-11.6 16-34.3 19.6-50.3 7.9-16-11.6-19.6-34.3-7.9-50.3L461 467.5c-4.2-14.2 0.6-30.1 13.2-39.3 9-6.5 19.9-8.1 30-5.6 10-2.5 21-0.9 30 5.6 12.6 9.2 17.4 25.1 13.2 39.3l223.4 307.2c11.6 16 8 38.6-8 50.2zM861.7 713.9H162.3c-33.8 0-61.1-27.4-61.1-61.1v-655.4c0-33.8 27.4-61.1 61.1-61.1h699.5c33.8 0 61.1 27.4 61.1 61.1V652.8c0 33.8-27.4 61.1-61.2 61.1zM781.1 32.8H242.9c-21.5 0-39 17.5-39 39v399c0 21.5 17.5 39 39 39h538.3c21.5 0 39-17.5 39-39v-398.9c0-21.6-17.5-39.1-39.1-39.1zM398.9 415.7H297c-5.2 0-9.4-4.2-9.4-9.4v-101.9c0-5.2 4.2-9.4 9.4-9.4h102c5.2 0 9.4 4.2 9.4 9.4V406.3c-0.1 5.2-4.3 9.4-9.5 9.4zM563 415.7H461c-5.2 0-9.4-4.2-9.4-9.4v-101.9c0-5.2 4.2-9.4 9.4-9.4h102c5.2 0 9.4 4.2 9.4 9.4V406.3c0 5.2-4.2 9.4-9.4 9.4zM727.1 415.7h-102c-5.2 0-9.3-4.2-9.3-9.3v-102c0-5.2 4.2-9.4 9.4-9.4h102c5.2 0 9.3 4.2 9.3 9.3v102c-0.1 5.2-4.3 9.4-9.4 9.4zM398.9 230.2h-102c-5.2 0-9.3-4.2-9.3-9.3v-102c0-5.2 4.2-9.4 9.4-9.4h102c5.2 0 9.3 4.2 9.3 9.3v102c0 5.2-4.2 9.4-9.4 9.4zM563 230.2H461c-5.2 0-9.4-4.2-9.4-9.4v-101.9c0-5.2 4.2-9.4 9.4-9.4h102c5.2 0 9.4 4.2 9.4 9.4V220.8c0 5.2-4.2 9.4-9.4 9.4zM625.1 109.5h102c5.2 0 9.4 4.2 9.4 9.4V220.8c0 5.2-4.2 9.4-9.4 9.4h-102c-5.2 0-9.4-4.2-9.4-9.4v-101.9c0-5.2 4.2-9.4 9.4-9.4z"  horiz-adv-x="1024" />

    
    <glyph glyph-name="wodezhuifan" unicode="&#59106;" d="M640.8 579.8c-0.9-1.2-0.9-3.1 0-4.2l90.1-123c0.9-1.2 0.4-2-1.1-1.8l-151.6 16.5c-1.4 0.2-3.1-0.8-3.7-2.1L513 325.7c-0.6-1.3-1.5-1.3-2.1 0l-61.5 139.5c-0.6 1.3-2.2 2.3-3.7 2.1l-151.6-16.5c-1.4-0.2-1.9 0.7-1.1 1.8l90.1 123c0.9 1.2 0.9 3.1 0 4.2l-90.1 123c-0.9 1.2-0.4 2 1.1 1.8l151.6-16.5c1.4-0.2 3.1 0.8 3.7 2.1l61.5 139.5c0.6 1.3 1.5 1.3 2.1 0l61.5-139.5c0.6-1.3 2.2-2.3 3.7-2.1l151.6 16.5c1.4 0.2 1.9-0.7 1.1-1.8l-90.1-123zM512 310.7m-374.9 0a374.9 374.9 0 1 1 749.8 0 374.9 374.9 0 1 1-749.8 0ZM600.4 472c-15.5 0-30.7-3.1-45.1-9.3-13.8-5.9-26.3-14.4-37-25.1-2.1-2.1-4.3-4.3-6.4-6.6-2 2.2-4.2 4.4-6.4 6.6-10.7 10.7-23.2 19.2-37 25.1-14.4 6.2-29.5 9.3-45.1 9.3-15.5 0-30.7-3.1-45.1-9.3-13.8-5.9-26.3-14.4-37-25.1-21.2-21.2-34.4-52.7-34.4-82.1 0-28 12.1-57 34-81.7 0.1-0.1 0.2-0.2 0.3-0.4 16-16 141.4-139.7 150.1-147.6l0.1-0.1c3.2-3.1 9.8-9.5 20.3-9.5 10.4 0 17 6.3 20.2 9.4l0.2 0.2c8.8 8 133.7 131.2 150.1 147.6 10.7 10.7 19.2 23.2 25.1 37 6.2 14.4 9.3 29.5 9.3 45.1 0 15.5-3.1 30.7-9.3 45.1-5.9 13.8-14.4 26.3-25.1 37-10.7 10.7-23.2 19.2-37 25.1-14.1 6.2-29.2 9.3-44.8 9.3"  horiz-adv-x="1024" />

    
    <glyph glyph-name="keji-" unicode="&#59107;" d="M96.8 797.8h829v-829h-829zM704.2 167.1L519.7-31.1H96.8v406H231c-5.5-11-8.6-23.4-8.6-36.5 0-45.4 36.8-82.2 82.2-82.2s82.2 36.8 82.2 82.2c0 13.1-3.1 25.5-8.6 36.5h141.6l184.4-207.8zM727.5 577.9L519.7 391.8v-139.9c11 5.5 23.4 8.6 36.5 8.6 45.4 0 82.2-36.8 82.2-82.2s-36.8-82.2-82.2-82.2c-13.1 0-25.5 3.1-36.5 8.6v-135.8h422.9V391.8L727.5 577.9zM942.7 797.8v-422.9H801.4c5.5 11 8.6 23.4 8.6 36.5 0 45.4-36.8 82.2-82.2 82.2-45.4 0-82.2-36.8-82.2-82.2 0-13.1 3.1-25.5 8.6-36.5H519.7V516.5c-11-5.5-23.4-8.6-36.5-8.6-45.4 0-82.2 36.8-82.2 82.2 0 45.4 36.8 82.2 82.2 82.2 13.1 0 25.5-3.1 36.5-8.6V797.8h423zM338.6 530.3c0 62.7 44.4 88.4 98.8 57l254.6-147c54.3-31.4 54.3-82.7 0-114l-254.6-147c-54.3-31.4-98.8-5.7-98.8 57v294z"  horiz-adv-x="1024" />

    
    <glyph glyph-name="wanjietuijian" unicode="&#59108;" d="M640.4 580.6c-0.9-1.2-0.9-3.1 0-4.2l89.7-122.6c0.9-1.2 0.4-2-1.1-1.8l-151 16.4c-1.4 0.2-3.1-0.8-3.7-2.1l-61.3-139c-0.6-1.3-1.5-1.3-2.1 0l-61.3 139c-0.6 1.3-2.2 2.3-3.7 2.1L295 452c-1.4-0.2-1.9 0.7-1.1 1.8l89.7 122.6c0.9 1.2 0.9 3.1 0 4.2l-89.7 122.6c-0.9 1.2-0.4 2 1.1 1.8l151-16.4c1.4-0.2 3.1 0.8 3.7 2.1l61.3 139c0.6 1.3 1.5 1.3 2.1 0l61.3-139c0.6-1.3 2.2-2.3 3.7-2.1L729 705c1.4 0.2 1.9-0.7 1.1-1.8l-89.7-122.6zM512 309.4m-373.6 0a373.6 373.6 0 1 1 747.2 0 373.6 373.6 0 1 1-747.2 0ZM374.7 280.9h269.7c8.3-0.9 12.5-5.5 12.5-13.8 0-9.2-4.2-13.8-12.5-13.8h-81.6V180c-1.9-12.9 5.1-18.9 20.8-18h60.9c17.5-3.7 24.9 10.1 22.1 41.5 0 8.3 5.1 12.5 15.2 12.5 9.2 0 14.3-4.2 15.2-12.5 2.8-50.7-12.5-74.2-45.7-70.6h-76.1c-28.6 0-42.4 13.4-41.5 40.1v80.2h-65c2.8-72.9-49.8-100.5-119-118.9-10.2-1.8-17.5 1.4-22.1 9.7-2.8 8.3 0.5 14.3 9.7 18 59 12.9 106 31.3 102.4 91.2h-65c-8.3 0-12.5 4.6-12.5 13.8 0.1 8.3 4.2 12.9 12.5 13.9z m278 137.1H366.4c-7.4 0-10.6-3.2-9.7-9.7v-27.7c-0.9-10.2-5.5-15.7-13.8-16.6-9.2 0.9-13.8 6.4-13.8 16.6v41.5c0 15.7 8.3 23.5 24.9 23.5h135.6c-0.9 0-1.9 0.9-2.8 2.8-2.8 5.5-5.5 11.5-8.3 18-4.6 7.4-2.8 13.4 5.5 18 8.3 3.7 15.2 2.3 20.8-4.2 5.5-9.2 11.5-20.8 18-34.6h139.7c29.5-4.6 36-27.2 19.4-67.8-4.6-9.2-11.5-12.5-20.8-9.7-7.4 4.6-9.2 12-5.5 22.1 5.4 17.6 4.5 26.8-2.9 27.8z m-48.4-81.7H407.9c-8.3 0-12.5 4.6-12.5 13.8 0 8.3 4.2 12.9 12.5 13.8h196.5c8.3-0.9 12.5-5.5 12.5-13.8-0.1-9.2-4.3-13.8-12.6-13.8zM657.9 123.5c-2.4 0-4.9 0.2-7.5 0.4l-75.1-0.1c-17.2 0-30.4 4.5-39 13.5-8.2 8.5-12.1 20.6-11.5 36v70.8h-46.9c-2-75.2-64.3-102.2-125.7-118.6-14.6-2.6-25.9 2.3-32.3 14-5 14.4 0.6 25.3 14.2 30.8 60.4 13.3 95.6 29.9 96.9 73.8h-56.1c-13.2 0-21.5 8.8-21.5 22.8 0 12.9 7.6 21.4 20.5 22.8l1 0.1h269.7c13.8-1.5 21.5-10 21.5-22.9 0-14.1-8.2-22.8-21.5-22.8h-72.5v-64.2c-0.5-4.1-0.3-6.3 0.5-7.2 0.4-0.4 2.5-2.2 10.7-1.8h61.4c6.9-1.2 8.5 0.2 9.1 0.6 1.5 1.3 6.2 7.5 4.1 31.1 0 14.2 9 22.3 24.2 22.3 13.7 0 22.8-7.7 24.2-20.5 1.9-34.2-3.8-56.8-17.4-69.6-8.3-7.5-18.6-11.3-31-11.3zM459.4 262.2h83.4V173c-0.4-10.6 1.8-18.3 6.5-23.1 5.1-5.3 13.9-8 26-8h76.1c11.5-1.2 19.3 0.8 24.8 6 9.2 8.7 13.3 27.7 11.8 55-0.3 2.2-0.5 3.9-6.2 3.9-6.2 0-6.2-1.3-6.2-3.4 2-22.7-1.2-37.4-10.1-45.3-4.1-3.6-11.4-7.4-22.9-5l-59-0.2c-10.8-0.7-19.3 1.9-24.5 7.6-4.7 5.1-6.4 12-5.2 20.7l-0.1 81h90.6c2.7 0 3.4 0 3.4 4.8 0 3.7-0.7 4.5-4.4 4.9l-268.1-0.1c-3.3-0.4-4-1.3-4-4.8 0-4.8 0.7-4.8 3.4-4.8h73.5l0.5-8.5c4.3-69.8-54.3-88.5-109.5-100.6-4.5-1.9-3.9-3.7-3-6.3 1.6-2.6 4.6-4.9 12-3.7 68.5 18.3 114.1 44.1 111.6 109.7l-0.4 9.4z m144.9 65H407.9c-13.2 0-21.5 8.8-21.5 22.9 0 12.8 7.6 21.4 20.5 22.8l197.5 0.1c13.8-1.5 21.5-10 21.5-22.8-0.1-14.2-8.3-23-21.6-23z m-1 27.8l-195.5-0.1c-2.7-0.4-3.4-1.1-3.4-4.8 0-4.8 0.7-4.8 3.4-4.8h196.5c2.7 0 3.4 0 3.4 4.8 0.1 3.7-0.7 4.5-4.4 4.9z m-259.5 0c-15.8 1.4-23.8 10.7-23.8 25.6v41.5c0 20.7 12.4 32.5 33.9 32.5h119.8c-1.2 2.6-2.4 5.4-3.6 8.2-2.9 4.4-4 10-2.6 15.4 1.4 5.6 5.5 10.4 12.1 14 12.7 5.7 23.8 3.3 32-6.2 5.7-9.3 11.2-19.6 16.9-31.4h134c16.2-2.4 26.6-8.8 32.4-19.1 7.9-14.1 6.4-34.1-4.7-61.2-6.8-13.7-18.3-18.9-31.7-14.9l-2.2 1c-6.5 4-16.3 13.6-9.2 32.9 2.8 8.9 3.1 13.5 3 15.5H365.7v-28.3c-1.3-15.1-9.3-24.1-21.9-25.5z m10.1 81.6c-13.2 0-15.9-5.6-15.9-14.5v-41.5c0-6.6 2.2-7.3 5.7-7.6 0.3 0.2 3.2 0.5 4 8.4v26.9c-0.9 5.8 1.5 10.3 3.6 12.9 3.4 3.9 8.4 5.8 15.1 5.8l287.5-0.1c4.8-0.6 8.7-3.1 11.2-6.9 4.3-6.7 4-16.7-1-32.4-2.7-7.3-1-9.8 0.7-11.1 3.7-0.8 6.2 0 8.9 5.4 8.3 20.4 10.3 36.1 5.4 44.8-3 5.3-8.9 8.6-18.1 10l-144-0.1-2.4 5.2c-6.3 13.5-12.2 24.9-17.6 33.8-1.6 1.7-4.1 2.9-9.4 0.5-1.7-1-2.6-2.1-2.6-2.4 0-0.2 0.2-1 1.1-2.6 3.3-7.5 6-13.4 8.7-18.8-0.4 0.5-2.4 2.2-5.3 2.2v-18H353.9z"  horiz-adv-x="1024" />

    
    <glyph glyph-name="youxi" unicode="&#59109;" d="M843-31.1H181.9c-46.1 0-83.9 37.7-83.9 83.9V713.9c0 46.1 37.7 83.9 83.9 83.9H843c46.1 0 83.9-37.7 83.9-83.9v-661.2c0-46.1-37.7-83.8-83.9-83.8zM266.8 606.3h163.7v-163.7H266.8zM594.2 606.3h163.7v-163.7H594.2zM430.5 442.6v-90.9h-77v-245.5h71.1V188h175.6v-81.8h71.1V351.7h-77.1v90.9z"  horiz-adv-x="1024" />

    
    <glyph glyph-name="zhibo" unicode="&#59110;" d="M378.6 582.7c0-58.2-47.2-105.4-105.4-105.4s-105.4 47.2-105.4 105.4S215 688.1 273.2 688.1s105.4-47.2 105.4-105.4M584.5 477.3c90.6 0 164 73.4 164 164s-73.4 164-164 164-164-73.4-164-164 73.4-164 164-164zM873.8 368.5l-72.6-41.9v55.3c0 45.2-37 82.1-82.1 82.1H148.3c-45.2 0-82.1-37-82.1-82.1v-337.1c0-45.2 37-82.1 82.1-82.1H719c45.2 0 82.1 37 82.1 82.1V72l72.6-41.9c38.9-22.5 87.6 5.6 87.6 50.6V318c0 44.9-48.6 73-87.5 50.5zM415.8 313.2l141.7-81.8c18.7-10.8 18.7-37.9 0-48.7l-141.7-81.8c-18.7-10.8-42.2 2.7-42.2 24.4V288.9c0.1 21.6 23.5 35.1 42.2 24.3"  horiz-adv-x="1024" />

    
    <glyph glyph-name="yule" unicode="&#59111;" d="M132-49.5l-55.6 55.6c-17.2 17.2-17.2 45.3 0 62.5L509.8 502c17.2 17.2 45.3 17.2 62.5 0l55.6-55.6c17.2-17.2 17.2-45.3 0-62.5L194.5-49.5c-17.2-17.1-45.3-17.1-62.5 0zM352.4 344.5l157.4 157.4c17.2 17.2 45.3 17.2 62.5 0l55.6-55.6c17.2-17.2 17.2-45.3 0-62.5L469.7 225.7 352.4 344.5zM322.3 116.3L241 197.7c-8.6 8.6-8.6 22.6 0 31.2 8.6 8.6 22.6 8.6 31.2 0l81.4-81.3c8.6-8.6 8.6-22.6 0-31.2-8.6-8.6-22.7-8.6-31.3-0.1zM787.7 394.9c0.3 1.1 1.4 2.2 2.4 2.4l167.8 45c1.1 0.3 1.3 1.2 0.5 1.9L835.7 567.1c-0.8 0.8-1.2 2.3-0.9 3.3l48.7 181.8c0.3 1.1-0.4 1.7-1.4 1.4L700.2 705c-1.1-0.3-2.6 0.1-3.3 0.9L574 828.7c-0.8 0.8-1.6 0.5-1.9-0.5l-45-167.8c-0.3-1.1-1.4-2.2-2.4-2.4l-167.8-45c-1.1-0.3-1.3-1.2-0.5-1.9l122.9-122.9c0.8-0.8 1.2-2.3 0.9-3.3L431.4 303c-0.3-1.1 0.4-1.7 1.4-1.4l181.8 48.7c1.1 0.3 2.6-0.1 3.3-0.9l122.9-122.9c0.8-0.8 1.6-0.5 1.9 0.5l45 167.9zM943.9 489.2l-85.7 85.7 35.1 131c5 18.8 1.4 36.1-10 47.5-11.4 11.4-28.7 15.1-47.5 10l-131.1-35.1L619 814.1c-13.8 13.8-30.6 19.3-46.1 15.1-15.6-4.2-27.4-17.3-32.4-36.1L509.1 676 392 644.6c-18.8-5-32-16.9-36.1-32.4-4.2-15.6 1.3-32.4 15.1-46.1l85.7-85.7-35.1-131.1c-5-18.8-1.4-36.1 10-47.5 8-8 19-12.2 31.4-12.2 5.2 0 10.6 0.7 16.1 2.2l131.1 35.1 85.7-85.7c10.7-10.7 23.3-16.4 35.8-16.4 3.5 0 7 0.5 10.4 1.4 15.6 4.2 27.4 17.3 32.4 36.1l31.4 117.1L923 410.8c18.8 5 31.9 16.8 36.1 32.4 4.1 15.4-1.4 32.3-15.2 46z m-97 232.9c3.1 0.8 5 0.8 5.7 1.1 0.1-1 0.1-2.9-0.7-6L823.2 610l-83.4 83.4 107.1 28.7z m-36.6-160l-39.6-147.8L623 374.7 504.5 493.2 544.1 641l147.8 39.6 118.4-118.5zM581.9 781.9c0.8 3.1 1.8 4.8 1.9 5.4 0.9-0.4 2.5-1.3 4.8-3.6l68.2-68.2-99.8-26.7 24.9 93.1zM401.3 596.4c-2.3 2.3-3.2 4-3.8 4.4 0.8 0.6 2.5 1.6 5.6 2.4l93.1 25-26.8-99.9-68.1 68.1z m66.6-263.2c-3.1-0.8-5-0.8-5.7-1.1-0.1 1-0.1 2.9 0.7 6l28.7 107.1 83.4-83.4-107.1-28.6z m265-59.9c-0.8-3.1-1.8-4.8-1.9-5.4-0.9 0.4-2.6 1.3-4.9 3.6L658 339.7l99.9 26.8-25-93.2z m178.8 178.8l-93.1-25 26.8 99.9 68.2-68.2c2.3-2.3 3.2-4 3.8-4.4-0.9-0.5-2.5-1.4-5.7-2.3z"  horiz-adv-x="1024" />

    
    <glyph glyph-name="zuixinlianzai" unicode="&#59112;" d="M640.4 580.2c-0.9-1.2-0.9-3.1 0-4.2l89.8-122.6c0.9-1.2 0.4-2-1.1-1.8L578 467.9c-1.4 0.2-3.1-0.8-3.7-2.1L513 326.7c-0.6-1.3-1.5-1.3-2.1 0l-61.3 139.1c-0.6 1.3-2.2 2.3-3.7 2.1l-151.1-16.4c-1.4-0.2-1.9 0.7-1.1 1.8L383.6 576c0.9 1.2 0.9 3.1 0 4.2l-89.8 122.6c-0.9 1.2-0.4 2 1.1 1.8L446 688.2c1.4-0.2 3.1 0.8 3.7 2.1L511 829.4c0.6 1.3 1.5 1.3 2.1 0l61.3-139.1c0.6-1.3 2.2-2.3 3.7-2.1l151.1 16.4c1.4 0.2 1.9-0.7 1.1-1.8l-89.9-122.6zM512 309.9m-373.7 0a373.7 373.7 0 1 1 747.4 0 373.7 373.7 0 1 1-747.4 0ZM388.2 227.7c-12.2-23.4-38.3-60.1-43.2-67.3-6-6.8-13-7.6-20.1-4-6.3 5.4-6.4 9.6-1.3 17.4 13.1 15.3 28.4 40.8 40.5 63.3 3.6 8 9.4 10.7 17.4 8 7.2-3.6 9.4-9.4 6.7-17.4z m82.8 139h33.5c7.2-0.9 11.2-4.9 12.1-12.1 0-8-3.6-12.1-10.7-12.1h-63V293h61.7c8-0.9 12.5-5.4 13.4-13.4-0.9-7.2-5.8-10.7-14.7-10.7H443v-101.8c4.5-29.5-15.6-38-60.3-25.5-8.9 2.7-13 7.6-12.1 14.7 2.7 8 8 11.2 16.1 9.4 25-8.9 35.7-6.2 32.2 8v95.1h-79c-8 0-12.5 3.6-13.4 10.7 0.9 8 5.4 12.5 13.4 13.4h79v49.6H341c-8.9 0-13.9 3.6-14.7 10.7 0.9 8 5.4 12.5 13.4 13.4h103.2c4.5 7.2 10.7 22.8 18.8 46.9 2.7 8 8 10.7 16.1 8 8.9-3.6 12.1-8.9 9.4-16.1-1.8-3.6-4.5-9.4-8-17.4-3.7-10.6-6.4-17.7-8.2-21.3z m22.8 59H343.7c-8 0-12.1 4-12.1 12.1 0 8 4 12.5 12.1 13.4H412c-2.7 5.4-5.4 10.7-8 16.1-5.4 8-4.5 14.7 2.7 20.1 8 3.6 14.7 1.3 20.1-6.7 6.2-14.3 11.6-24.1 16.1-29.5h50.9c7.2-0.9 11.2-5.4 12.1-13.4-1-8.1-5-12.1-12.1-12.1z m-97.9-12.1l9.4-18.8c0.9-2.7 2.2-4.9 4-6.7 2.7-8 0.9-14.3-5.4-18.8-7.2-2.7-12.5 0-16.1 8-5.4 9.8-9.8 18.3-13.4 25.5-3.6 6.2-2.2 12.1 4 17.4 7.2 2.8 13 0.6 17.5-6.6zM475 259.5c5.4-6.3 12.5-15.6 21.5-28.2 0.9-2.7 2.2-4.5 4-5.4 4.5-7.2 4-13.4-1.3-18.8-6.3-4.5-12.1-3.6-17.4 2.7-2.7 2.7-5.8 6.2-9.4 10.7-5.4 8-10.7 15.6-16.1 22.8-5.4 5.4-5.4 10.7 0 16.1 6.2 4.6 12.4 4.6 18.7 0.1z m96.5 158.2v-41.6h113.9c25 0 24.2-29.5 1.3-29.5h-32.2v-201c-0.9-8.9-5.4-13.9-13.4-14.7-8.9 0.9-13.4 5.8-13.4 14.7v201h-56.3v-71.1c-3.6-46.5-8.6-97.8-47-121.9-8-2.7-14.7-0.4-20.1 6.7-3.6 8-1.8 14.3 5.4 18.8 33.1 19.6 34 63.8 34.9 100.5V432.4c0 17 8.9 25.5 26.8 25.5 41.1 4.5 70.2 8.9 87.1 13.4 8.9 1.8 15.2-0.9 18.8-8 1.8-9.8-1.8-15.6-10.7-17.4-27.7-5.4-54.5-9.8-80.4-13.4-10.7-1-15.6-5.9-14.7-14.8zM642 122.9c-14.8 1.3-22.3 9.6-22.3 22.7v193h-40.2v-63c-3.3-43.3-7.8-101.8-50.7-128.7-13.1-4.6-23.4-1.2-30.8 8.7-6.1 13.3-3 23.8 7.5 30.4 29.2 17.4 30.3 57.8 31.1 93.5V432.4c0 21.3 12.7 33.5 34.8 33.5 39.8 4.4 68.7 8.8 85.1 13.1 12.9 2.6 22.7-1.8 28-12.2l0.7-2.2c2.6-14.1-3.8-24.1-17-26.7-28-5.4-55.2-9.9-80.9-13.5-5.5-0.5-7-1.8-7.3-2.2-0.7-0.8-0.7-2.5-0.6-3.8v-34.3h105.9c9.9 0 16-3.7 19.4-6.7 4.6-4.2 7.2-10.1 7.2-16.2 0-11-8.9-22.6-25.3-22.6h-24.2v-193c-1.1-13.4-8.6-21.4-20.4-22.7z m-78.5 231.7h72.3v-209c0-4.8 1.3-6.3 6.2-6.8 1.4 0.3 4 1.1 4.6 7.6V354.6h40.2c6.4 0 9.3 3.3 9.3 6.6 0 4.2-4.2 6.9-10.6 6.9h-122v49.2c-0.5 6.1 0.9 11.2 4.3 15.2 3.8 4.6 9.8 7.2 17.9 7.9 25 3.5 51.9 8 79.6 13.3 3.3 0.6 5.3 1.4 4.5 6.9-1.3 2.3-3.5 4.1-9.5 2.8-16.9-4.5-45.8-8.9-87.8-13.5-14.4-0.1-19.7-5-19.7-17.5v-152.8c-0.9-38.5-2.1-85.6-38.8-107.4-3.2-2-4.3-3.7-2.1-8.6 2.9-3.5 6.3-3.7 10.3-2.4 31.6 20.2 37.6 64 41.5 115l-0.2 78.4zM415.8 128c-9.8 0-21.6 1.9-35.5 5.8-18.1 5.4-18.5 18.2-17.9 23.5 4.3 13.5 13.9 18.9 25.8 16.2 16.3-5.8 21.9-5 23.2-4.7-0.1 0.3-0.2 1.3-0.6 3l-0.2 1.9v87.1h-71c-12 0-20 6.6-21.4 17.8 1.3 13.6 8.7 21 20.5 22.3l71.9 0.1v33.5H341c-18.5 0-22 12.4-22.7 17.8 1.3 13.6 8.7 21.1 20.5 22.3h41.5c-5 9.2-9.5 17.5-13 24.6-3.5 6.1-3.7 12.4-0.9 18.4h-22.6c-12.4 0-20.1 7.7-20.1 20.1 0 12.1 7.2 20 19.2 21.4h56.2l-2.3 4.5c-7.2 10.7-5.5 22.2 5.1 30.1 13.1 6.1 24.1 2.6 31.6-8.7 6.2-14.1 10.5-21.7 13.4-25.9h46.9c11.8-1.4 18.7-8.9 20-20.5-1.3-13.6-8.6-20.8-19.6-21 3-6.2 1.3-12.4 0.3-14.9-2.1-4.3-4.7-10-8.2-17.9-1.3-3.9-2.4-7.2-3.5-10.2h21.6c11.7-1.4 18.7-8.3 20-19.1 0.1-13.4-7.1-21.1-18.7-21.1h-55V301h53.7c12.6-1.3 20.1-8.8 21.4-20.5-0.7-7.2-4.2-19.6-22.7-19.6h-18.9c5-6.2 11.3-14.5 18.7-24.8l1.1-2.2 2-1 1.2-2.6c6.4-10.3 5.5-20.7-2.5-28.7-10.6-7.8-21.1-6.2-29.2 3.1-2.4 2.4-5.8 6.2-9.6 11-5.3 7.9-10.3 14.9-15.2 21.6v-70.2c2.1-13.1-0.8-24-8.8-31-5.9-5.4-14.6-8.1-26.1-8.1z m-33.5 30.3c-1.8 0-3.1-1-4.2-4.5 0.2-0.1-0.2-2.5 6.8-4.5 31.7-8.9 42.9-4.5 46.7-1.2 3.6 3.2 4.7 9.2 3.4 17.8l-0.1 111.1h68.4c6.3 0 6.5 1.9 6.8 3.7-0.5 2.4-2 4-6.3 4.4l-68.8-0.1v65.6h71c1.6 0 2.1 0.3 2.1 0.3s0.6 0.8 0.6 3.7c-0.4 2.5-1.5 3.7-5 4.1l-45.6-0.1 5.9 11.6c1.6 3.1 4.1 9.9 7.6 20.4 3.9 8.9 6.7 14.9 8.5 18.5 0.3 1 0.9 2.6-5.2 5-3.4 1.1-4.2 0.7-5.5-3.1-8.3-25-14.7-40.8-19.6-48.6l-2.4-3.8H339.6c-3.4-0.4-5-1.9-5.4-6.3 0.2 0 0.6-1.8 6.8-1.8h85.7V285h-87.1c-3.4-0.4-5-1.9-5.4-6.2 0.3-0.4 0.4-1.8 5.4-1.8h87.1v-102.2c2.1-9.5-1.2-14.9-4.3-17.7-6.9-6.3-18.8-5.9-38.6 1.2h-1.5z m83.3 96.5c-1.5 0-3-0.6-4.7-1.9-1.2-1.4-1.2-1.7 1-3.9 6.2-8.1 11.6-15.8 17.1-24 2.9-3.7 5.8-7 8.4-9.5 3.6-4.1 4.8-3.5 7.1-1.9 0.9 1 2 2.7 0 6.6-1.9 1.5-3.8 3.7-5.2 7.2-8.1 11.3-14.7 20-19.7 25.9-1.4 1.1-2.7 1.5-4 1.5z m-62.8 162.9l0.2-0.5 9.4-18.8c0.9-2.6 1.6-3.7 2.5-4.6l2-3.2c1.9-5.8 2.1-11.2 0.6-16h20.6c3.1 6.2 8.2 18.3 15.9 41.4 0.2 0.5 0.4 1 0.5 1.5h-51.7z m-20.2-4.4c-3.1-3.1-2.1-4.8-1.2-6.4 3.7-7.5 8.2-15.9 13.5-25.6 2.2-4.8 3.6-5.2 5.2-4.7 2 1.7 3 3.7 2.1 7.6-2 2.3-3.5 5.1-4.5 8.2l-8.7 17.3c-2.5 3.7-4.3 4.1-6.4 3.6z m-38.9 29.8c-3.1-0.4-4-1.5-4-5.4 0-3.6 0.5-4 4-4h150.1c2.1 0 3.5 0 4.1 5-0.6 3.6-2.6 4.2-5.1 4.5l-53.7-0.1-2.4 2.9c-5 6-10.7 16.3-17.3 31.4-3.3 4.7-6.3 4-9.5 2.6-1.3-1.2-2.8-3 0.8-8.3l14.3-28.6h-81.3z m-10.9-296.8c-3.7 0-7.6 1-11.5 2.9l-1.6 1.1c-11.9 10.2-7.8 20.2-2.9 27.9 11.4 13.5 25.8 36 40.2 62.8 4.9 11.2 15.2 15.8 27 11.8 11.8-5.8 15.7-15.7 11.8-27.5l-0.5-1.2c-10.7-20.6-31.6-50.6-40.5-63.5l-3.2-4.7c-5.5-6.4-12-9.6-18.8-9.6z m-3.4 16.8c3.9-1.7 6.6-0.9 9.6 2.5l2.7 4c8.6 12.5 28.8 41.5 39.1 61.2 1.3 4.3 0.2 5.6-2.9 7.2-2.8 0.8-4.5 0.5-6.5-4.1-9-16.8-26.1-46.9-41.8-65.3-1.6-2.6-1.7-3.8-1.7-3.9 0.1 0 0.4-0.6 1.5-1.6z"  horiz-adv-x="1024" />

    
    <glyph glyph-name="wechat" unicode="&#58934;" d="M1004.416 352.085333c-25.984 58.88-75.008 105.642667-131.925333 134.442667-100.437333 50.858667-225.322667 50.56-325.504-1.28-69.589333-35.712-127.701333-99.712-144.170667-177.578667-13.568-57.344-1.408-119.082667 29.013333-169.002666 45.269333-75.178667 127.104-123.178667 212.096-138.581334 61.568-12.501333 125.269333-5.077333 185.088 12.16 35.925333-13.909333 67.925333-36.437333 102.741334-53.162666a2238.762667 2238.762667 0 0 1-28.842667 89.685333c39.082667 27.733333 74.496 62.336 95.744 105.770667 31.744 60.373333 33.664 135.296 5.76 197.546666z m-423.424 403.882667c-106.453333 59.904-239.018667 68.906667-353.536 27.52-75.264-27.093333-143.36-77.44-185.429333-145.92-38.186667-61.866667-52.48-139.008-34.090667-209.792 18.474667-78.506667 73.002667-144.341333 139.178667-188.288-12.8-36.266667-24.96-72.490667-36.48-109.013333 41.6 21.76 83.2 44.501333 124.842666 66.602666 49.92-16 103.04-23.850667 156.16-22.101333a262.784 262.784 0 0 0-10.88 125.909333c9.6 58.496 41.6 112 85.077334 151.637334 73.642667 68.906667 177.962667 97.962667 277.162666 90.922666-18.602667 91.093333-82.602667 168.064-163.157333 212.48h1.152z m73.941333-426.197333c-8.917333-27.818667-49.322667-36.181333-68.906666-15.018667-21.589333 19.584-13.184 60.501333 15.146666 69.248 31.317333 13.226667 67.498667-22.912 53.76-54.229333z m204.586667-3.925334c-10.922667-25.002667-48.682667-30.848-67.242667-11.52-8.917333 8.149333-11.52 20.437333-14.677333 31.146667 4.437333 19.541333 17.92 39.808 39.68 40.746667 30.08 4.181333 57.002667-32.981333 41.6-60.416h0.64zM554.24 601.216c0.341333-41.002667-54.4-66.602667-85.12-38.784-31.872 22.826667-22.826667 78.378667 14.592 89.856 33.493333 13.44 73.088-14.677333 70.442667-50.56l0.085333-0.512z m-258.517333-10.410667c-7.338667-35.626667-55.082667-52.821333-83.029334-28.928-32.384 22.826667-23.296 79.402667 14.72 90.922667 37.248 14.336 79.573333-23.466667 68.309334-61.994667z"  horiz-adv-x="1024" />

    
    <glyph glyph-name="share" unicode="&#58942;" d="M922.282667 447.872l-243.797334 260.309333a53.845333 53.845333 0 0 1-28.245333 16.085334 51.2 51.2 0 0 1-31.701333-3.584 56.32 56.32 0 0 1-24.576-21.973334c-5.973333-9.813333-9.216-21.333333-9.216-33.066666v-130.986667c-110.08-9.258667-215.381333-52.266667-303.701334-124.032-88.32-71.765333-155.989333-169.301333-195.072-281.173333a12.885333 12.885333 0 0 1-0.213333-7.253334 12.032 12.032 0 0 1 3.712-6.101333 10.325333 10.325333 0 0 1 12.757333-0.768c145.792 96.426667 311.850667 151.168 482.517334 159.018667v-129.322667c0-11.776 3.2-23.253333 9.216-33.066667 6.016-9.813333 14.592-17.450667 24.576-21.973333 10.026667-4.565333 21.077333-5.802667 31.701333-3.584 10.666667 2.218667 20.48 7.808 28.245333 16.085333l243.797334 260.266667c5.205333 5.589333 9.301333 12.202667 12.117333 19.541333a64.256 64.256 0 0 1 0 46.08 60.373333 60.373333 0 0 1-12.117333 19.498667z"  horiz-adv-x="1024" />

    
    <glyph glyph-name="shezhibiaotou" unicode="&#58913;" d="M878 195.79999999999995l-30.6 24.1c0.3 3.8 0.4 7.3 0.4 10.7s-0.1 6.9-0.4 10.7l30.7 24.3c9 7.4 11.3 20 5.5 30.1l-34.9 61.1c-4.2 7.3-12 11.9-20.4 11.9-2.9 0-5.9-0.5-8.7-1.7l-35.9-14.6c-5.8 4-11.9 7.6-18.1 10.6l-5.5 38.5c-1.7 11.3-11.7 19.6-23.3 19.6h-69.9c-11.7 0-21.5-8.1-23.3-19.8l-5.4-38.5c-6.3-3.1-12.3-6.6-18.1-10.5l-36 14.7c-2.6 1-5.4 1.5-8.2 1.5-8.5 0-16.6-4.6-20.7-11.8l-34.9-61.1c-5.8-10.1-3.4-22.8 5.7-30.2l30.5-24.1c-0.3-3.8-0.4-7.3-0.4-10.7s0.1-6.9 0.4-10.7L526 195.70000000000005l-0.1-0.1c-8.9-7.4-11.2-20-5.5-30l35-61.2c4.2-7.3 12-11.8 20.4-11.8 3 0 5.9 0.6 8.7 1.7l35.9 14.6c5.8-4 11.9-7.6 18.1-10.6l5.5-39.2c1.8-11.5 11.6-20.1 23.2-20.1H737c11.5 0 21.5 8.9 23.3 20.4l5.4 38.8c6.3 3.1 12.3 6.7 18.1 10.7l36-14.7c2.7-1.1 5.6-1.6 8.5-1.6 8.4 0 16.2 4.5 20.4 11.9l34.9 61.1c5.8 10 3.5 22.7-5.6 30.2z m-296.5 6c4 3.2 6.2 8.4 5.5 13.5-0.7 5.6-1.1 10.6-1.1 15.3s0.4 9.7 1.1 15.3c0.7 5.2-1.4 10.3-5.6 13.6l-33.1 25.3 29.2 53.1 39.3-16c4.8-2 10.5-1.2 14.7 2 8.3 6.4 17.1 11.6 26.2 15.4 4.8 2 8.2 6.4 8.9 11.6l4.9 41.5 60 0.9 5.9-42.4c0.7-5.2 4.1-9.6 9-11.6 9.1-3.8 17.9-9 26.2-15.4 4.1-3.2 9.8-3.9 14.6-2l38 16.4 30.9-52.3-33.5-26.5c-4.1-3.2-6.2-8.4-5.5-13.5 0.8-6 1.1-10.9 1.1-15.3 0-4.6-0.4-9.5-1.1-15.3-0.6-5.1 1.5-10.3 5.6-13.5l33.1-25.2-29.2-53.1-39.3 16c-1.8 0.7-3.7 1.1-5.6 1.1-3.3 0-6.5-1.1-9.1-3.1-8.3-6.4-17-11.6-26.1-15.4-4.8-2-8.2-6.4-9-11.6l-5.8-41.5-59.2-0.9-5.9 42.4c-0.7 5.1-4.1 9.6-9 11.6-9 3.7-17.8 8.9-26.2 15.4-2.6 2-5.8 3.1-9 3.1-1.9 0-3.8-0.4-5.7-1.1L578.9 123 548 175.29999999999995l33.5 26.5zM702.1 151.70000000000005c43.2 0 78.3 35.4 78.3 78.9s-35.1 78.9-78.3 78.9-78.3-35.4-78.3-78.9c0-43.5 35.1-78.9 78.3-78.9z m-48.7 78.9c0 27.2 21.8 49.3 48.7 49.3 26.8 0 48.7-22.1 48.7-49.3s-21.8-49.3-48.7-49.3c-26.8 0-48.7 22.1-48.7 49.3zM736.8 720H185.2c-26.6 0-48.2-21.6-48.2-48.2v-529.6c0-26.6 21.6-48.2 48.2-48.2H544l-36.2 63.3c-1.6 2.8-2.6 5.7-3.2 8.7H352v64h193.5c0.1 2.4 0.2 4.9 0.4 7.5l-31.4 24.8c-10.5 8.5-13.3 23.2-6.6 34.8l2.8 4.9H352v69h201.7c4.4 2.8 9.5 4.4 15 4.4 3.3 0 6.5-0.6 9.5-1.8h0.1l6.3-2.6h48.3l5.3 37.7c2.1 13.4 13.4 23.3 26.8 23.3h74c13.3 0 24.8-10 26.8-23.1l5.6-40.1c4.6-2.3 9.2-4.9 13.6-7.8V671.8c0 26.6-21.6 48.2-48.2 48.2zM280 166h-71v64h71v-64z m0 136h-71v69h71v-69z m0 141h-71v67h71v-67z m0 139h-71v66h71v-66z m433-139H352v67h361v-67z m0 139H352v66h361v-66z"  horiz-adv-x="1024" />

    
    <glyph glyph-name="Play" unicode="&#60280;" d="M802.133333 810.666667h-580.266666C98.986667 810.666667 0 711.68 0 588.8v-409.6c0-122.88 98.986667-221.866667 221.866667-221.866667h580.266666c122.88 0 221.866667 98.986667 221.866667 221.866667V588.8c0 122.88-98.986667 221.866667-221.866667 221.866667z m-92.16-440.32l-307.2-204.8c-3.413333-3.413333-6.826667-3.413333-10.24-3.413334-3.413333 0-6.826667 0-6.826666 3.413334-6.826667 0-10.24 6.826667-10.24 13.653333V588.8c0 6.826667 3.413333 13.653333 10.24 13.653333s13.653333 3.413333 17.066666 0l307.2-204.8c3.413333-3.413333 6.826667-6.826667 6.826667-13.653333s-3.413333-10.24-6.826667-13.653333z"  horiz-adv-x="1024" />

    
    <glyph glyph-name="phone" unicode="&#58938;" d="M496.115756-18.261582999999973m-39.980478 0a39.980478 39.980478 0 1 1 79.960956 0 39.980478 39.980478 0 1 1-79.960956 0ZM845.94694 91.81666800000005l-0.001 603.174481V815.5392870000001c0 44.161437-35.79852 79.960957-79.960956 79.960957h-539.736457c-44.161437 0-79.960957-35.79952-79.960956-79.960957v-70.57354h-0.001v-49.975598h0.001v-603.174481h-0.001v-49.975598h0.001V-48.03904299999999c0-44.161437 35.79952-79.960957 79.960956-79.960957h539.736457c44.162436 0 79.960957 35.79952 79.960956 79.960957v89.880113h0.001v49.975598zM196.263168 815.5392870000001c0 16.533927 13.451432 29.985359 29.985359 29.985359h539.736457c16.533927 0 29.985359-13.451432 29.985359-29.985359v-70.57354h-599.707175V815.5392870000001z m0-120.548138h599.707175v-603.174481h-599.707175V694.991149z m599.707175-743.030192c0-16.533927-13.451432-29.985359-29.985359-29.985359h-539.736457c-16.533927 0-29.985359 13.451432-29.985359 29.985359v89.880113h599.707175V-48.03904299999999z"  horiz-adv-x="1024" />

    
    <glyph glyph-name="more" unicode="&#58632;" d="M415.93 672.21c0 52.98 43.004 95.984 95.984 95.984s95.984-43.004 95.984-95.984-43.004-95.984-95.984-95.984-95.984 43.003-95.984 95.984zM415.93 384.258c0 52.98 43.004 95.984 95.984 95.984s95.984-43.004 95.984-95.984-43.004-95.984-95.984-95.984-95.984 43.004-95.984 95.984zM415.93 96.134c0 52.98 43.004 95.984 95.984 95.984s95.984-43.003 95.984-95.984-43.004-95.983-95.984-95.983-95.984 43.175-95.984 95.983z"  horiz-adv-x="1024" />

    
    <glyph glyph-name="Cancelcontrol" unicode="&#58979;" d="M204.8 642.92864L463.72864 384 204.8 125.07136 253.07136 76.8 512 335.72864 770.92864 76.8 819.2 125.07136 560.27136 384 819.2 642.92864 770.92864 691.2 512 432.26112 253.07136 691.2z"  horiz-adv-x="1024" />

    
    </font>
</defs>
</svg>
